<svg xmlns="http://www.w3.org/2000/svg" viewBox="0 0 564.4 176.9" fill="white"><path d="M27.9 29.1c0.5-0.7 1.3-1.2 2.3-2 0.5-1 1.8-1.7 2.5-2.7 0.3 0.3-0.2 0.5 0.3 0.8 0.3 0.3 0.5 0 0.8-0.2 0.3 0 0.3-0.2 0.3-0.5 0.5-0.2 1 0 1.3 0 1-0.2 1-1.2 2-1.7 -0.7-0.5-1.2 0.3-1.7 0.3 -0.2-0.7 0.5-1 0.5-1.5 0.3 0 0.3 0.5 0.5 0.3 1-0.5 0.8-2 2-2.2 0.3 0 0.5 0.3 0.8 0.3 -0.5 0.5-1 0.3-1.5 0.8 0 0.3 0.3 0.5 0 0.8 0.8 0.3 1.3-0.5 1.8-0.2 0.3 0.3 0 0.5 0.3 0.8s0.8 0.3 1 0c-0.5-0.7 0-1.5 0.3-2 -0.5-0.5-0.7 0.3-1.2-0.2 -0.2-0.2 0-0.2 0.3-0.5s0.5 0 0.8-0.2 -0.2-0.5-0.2-0.7c4-2.2 8-4.2 11.8-6.5 0.5 0.3 0.3 0.5 0.5 0.8 0.8 0 1-0.7 1-1.2 0.5-0.2 1-0.5 1.8-0.7 0.3 0.3-0.2 0.5 0 0.5 0.5-0.2 0.8-1 1.5-1.2 0.8 0 1.5-0.5 2.3-0.7 0.3 0.5 0.5 0.8 0.8 0.3 0.3 0-0.2-0.2 0.3-0.5 4.5-1.7 9.3-2.2 14.3-2 1 1.3 2 2.8 3.8 3 0.5 0.5 1 1 1.5 1.8 1 1.5 2.3 2.3 3.8 3 2.5 1.5 4.3 3.5 6 5.8 1 1.5 1.8 3 3.3 4.3 0.5 0.5 0.5 1.3 1.3 1.8 0.3 1.5-0.2 2.5-1 3.8 -0.7 0.8-1.2 0.8-2.2 0.3 -0.2-0.2-0.2-0.2-0.5-0.2 -1.2 0.3-2.5 0-3.7 0.5 -1 0.3-2 0.3-3 0.3s-1.7 0.3-2.5 0.8c-0.5 0.3-1 0.5-1.7 0.5s-1.5 0.5-2.2 0.3c0 0-0.2 0-0.5 0.3 -0.7 0.5-2 0.8-2.7 1 -0.2 0-0.5 0-0.7 0.3 -2 1.3-4.2 1.8-6.5 3 -0.5 0.3-1 0.5-1.2 1 -1.2 1-2.5 1.5-3.7 2.3 -2.5 1.3-4.5 2.5-6.5 4.3 -0.5 0.5-1.2 1-1.7 1.5 -0.7 0.5-1.5 1.3-2.5 1.8 -0.2 0.3-0.5 0.5-0.7 0.5 -1 0-1.5 0.5-1.5 1.3 -2.2 1.8-4.2 3.8-6.2 5.8 -1 2-2.7 3.8-4.5 5.5 0.3 1.3-0.5 2-1.2 2.5 -0.2 0.5-0.5 0.8-0.7 1.3 -0.5 1.3-1.2 2.3-2 3.5 -0.7 0.5-1 1.5-1.2 2.3 -0.2 0.5-0.5 1.3-1 1.5 -0.7 0.8-1 1.5-1.2 2.3s-0.5 1.8-1.5 2.3c-0.5 0.3-0.5 1-0.7 1.5 0 0.3 0 0.8 0 1 -1 0.5-1 1.5-1 2.3 -0.5 1.5-1.5 2.8-1.7 4 -0.2 1.5-0.7 3-1 4.3 -0.2 1-0.5 2-0.7 2.8 -0.5 2.3-1 4.3-1 6.5 -0.2 1.8 0 3.3-0.2 4.8 -0.2 1.3-0.2 2.8 0.3 4 0 0.3 0.3 0.8 0.3 1 -0.2 1.5 0.3 3 0.5 4.5 0.3 0.5 0.3 0.8 0.5 1 -0.2 1.8 0 3.5 0.8 5 0.5 0.8 0.5 1.3 0.8 2 0.5 1.5 1.3 2.8 1.8 4 0.3 0.8 0.5 1.5 1 2 0.5 0.3 0.3 0.8 0.5 1.3 0.8 1.2 1.3 2.7 2.3 3.7 0.8 1.3 1.5 2.3 2.5 3.5 0.8 1 1.5 1.8 2.3 2.5 1.8 2.3 3.8 4 6 5.3 0.5 0.3 1 0.5 1.3 1 2.3 1.5 4.5 2.8 7 3.8 3.3 1 6.5 1.5 9.8 1.8 3.3 0 6.5 0 10-0.5 1.8 0 3.5-0.2 5.3-0.5 3.3-1 6.3-2.5 9.3-4.2s6.3-4 9.3-6c2.8-1.7 5.8-3.7 8.5-5.7 1.8-1.5 3.8-2.5 5.8-4 3-2 6-4 8.8-6 0.5-0.5 1-0.7 1.8-1 -1.7 2.8-4 4.8-5.5 7.2 0 0.5 0 0.8 0 1 -0.5 0.8-1 1.5-0.7 2.5 -0.7 1-1.7 2-2.2 3.5 0 0.3 0.5 0.5 0.5 0.8 -0.2 1-1.2 1.5-1 2.3 -0.7 1-1.5 1.8-2 2.8 -0.5 0.8-1 1.5-2.2 1.8 -0.7 2-2.7 3-4.2 4.5 -0.2 0-0.2 0.3-0.5 0.5 -1 1.8-2.5 3-4 4.5 -1.2 1.3-2.7 2.5-3.5 4 -0.2 0.3-0.5 0.3-0.7 0.5s0 0.8-0.2 1c-0.2 0.5-1 0.3-1.2 0.8 -0.2 0.3 0 0.5-0.2 0.8 -0.2 0.5-0.7 0.8-1.2 1 -0.2 0.3-0.2 0.5-0.2 0.8 -0.5 0.3-1 0.3-1.5 0.3 -0.2 0.3-0.2 0.8-0.7 1 -1.2-0.2-2.5 1-4 1 -1.7 0-3.5 0.5-5.5 0.3 0 0-0.2-0.2-0.2 0 -1.2 0.5-2.7-0.2-4 0.3 -0.5 0.3-1 0.3-1.5 0 -1 0-2-0.2-3 0 -0.5 0.3-1 0.3-1.5 0s-1.2-0.2-1.7 0.3c-1.2-1-2.7-0.7-4-1 -1.2-0.5-2.7-0.7-4-1.2 -2-0.5-3.7-1-5.5-1.5 -2.2-0.7-4.2-1.5-6.2-2.2 -0.7-0.2-1.2-1-1.2-1.7 -0.5-0.2-1-0.5-1.2-0.5 -0.5 0-0.5 0.5-1 0.5 -0.5-0.2-1.2-0.7-1.7-1 -0.5-0.5 0.3-1-0.2-1.2 -0.5 0-0.2 0.8-0.7 0.8 -4.7-2.7-9-6.2-13.3-10 -0.2-0.2 0.5-0.5 0.3-0.7 -0.5-0.2-0.5 0.3-1 0.3 0-0.2 0-0.2-0.2-0.2 -1-1-2-2.2-3-3.2s-2-2-2.7-3.2c-1.5-1.7-2.7-3.5-4-5.2 -1-1.2-1.7-2.5-2.7-4 -1.2-2-2.2-4.2-3.5-6.5 -1-2-2-4.2-2.7-6.2 -0.7-2.5-1.5-5.2-2-7.7 -0.7-2.7-1.2-5.2-1.5-8 -0.2-4.5-0.7-9-0.2-13.8 0.3-2.7 0.5-5.7 1-8.7 0.3-1.2 0.5-2.5 1-3.5 0.3-0.7 0.3-1.7 0.5-2.5 0.3-1.7 0.8-3.5 1.3-5.5 0.3 0 0.3-0.2 0.5-0.2 0.3 0.3-0.5 1 0.5 1.3 0.5-0.2 0-1.2 0.8-1.2 0 0.3 0 0.5 0 0.8 0.3 0.3 0.5 0.5 0.8 0.3s0-0.7-0.2-1c0 0-0.2 0-0.5 0 0-0.2 0-0.5 0.3-0.7s0.5 0 0.8-0.2c0-0.2 0-0.2 0.3-0.5 -0.5-0.2-0.5-0.7-0.7-1 0.3 0 0.8 0.3 1 0.3 0.3-0.5 1-0.7 0.8-1.7 -0.2 0.3-0.5 0.3-0.7 0.3s-0.5-0.2-1-0.2c-0.2 0.5-0.7 0.8-0.7 1.5 0.3 0.3 0.5 0.3 0.8 0 -0.2 0.8-0.5 1.3-1 1.8 -0.2-0.2-0.2-0.5-0.5-0.5 0-1.3 0.8-2 1-3 0.3-0.2 1-0.2 1-0.7 0.5-0.2 0.8 0 1 0 0 0.3 0 0.5 0.3 0.8 0.3 0 0.5-0.2 0.8-0.2 -0.2-0.7 0.5-1 0.8-1.2 0-0.5-0.5-0.5-0.5-1 0.3-0.5 0.5-0.7 1-1.2 -0.2-0.7-0.2-0.7 0.3-1 0.3 0-0.2 0.3 0.3 0.3 0.3 0 0.5-0.2 0.5-0.5 -0.2-0.2-0.5-0.5-0.7-0.5s-0.2 0.3-0.7 0c-0.2-0.5 0.3-0.7 0.3-1.2 -0.5 0-0.5 0.5-0.5 0.8 -0.2 0.5-0.5 1-0.5 1.5 -0.2-1 0-2 0.5-3 1.3-2 2.3-4 3.5-5.7 0.8-1.5 1.5-2.7 2.5-4.2 0.3-0.2 0.8-0.2 1-1 -0.2-0.2 0-0.5 0.3-1 1.5-2.2 3.3-4.7 5.3-7 0 0 0-0.2 0.3 0 0 1-1.2 1.5-1.5 2.8 0.8-0.2 1.3-0.5 1.5-1.2 0.5-0.5 0.8 0 1.3 0 0.8-0.5 0.8-1.7 1.5-2.2 0.3 0 0.5 0 0.5-0.2 0.3-1 1.3-1.2 1.3-2 0.5-0.2 0.8 0 1-0.2s0-0.2-0.2-0.5c-0.5 0-1 0.5-1.5 0.8 -0.2-0.2-0.2-0.5-0.2-0.7C26.9 30.1 27.7 29.6 27.9 29.1zM2.9 85.1c0.3 0.8 0.5 1.5 1.3 1.8 1-0.5 1.3-1.2 0.8-2 -0.2 0-0.7 0.3-1-0.5 0-0.2 0-0.7 0-1.7C2.9 83.4 3.7 84.6 2.9 85.1zM3.9 75.6c0.8 0.8 1.5-0.2 2.3 0.3 -0.5-1 0.3-1.2 0.3-1.5 0-0.5 0-0.7-0.2-1.2C5.2 73.9 4.4 74.6 3.9 75.6zM4.9 71.1c0.5 0.8 0.5 1.5 1.3 1.8 0.3 0 0.5 0 0.8-0.2 -0.2-0.2-0.7-0.2-0.7-0.5 -0.5-0.7 0.3-1 0.5-1.5 -0.5 0-0.7-0.2-1-0.5C5.4 70.6 5.4 71.1 4.9 71.1zM6.4 68.6c-0.2-0.2-0.7-0.2-1-0.2 -0.2 0.5-0.5 0.8 0.3 1.3C5.9 69.1 6.2 69.1 6.4 68.6zM7.9 60.1c0.5-1 0.8-2.2 1.5-3 0.3-0.2 0.5-0.2 1-0.5 0 0.8-0.5 1.3-0.7 1.5 0 0.3 0.3 0.5 0 1 -0.2 0-0.5-0.2-0.7 0 0 0.5-0.5 0.8-0.5 1.3C8.2 60.4 8.2 60.4 7.9 60.1zM10.9 65.1c0-0.5 0.8-0.7 0.3-1.5 -0.5 0.3-0.5 0.5-0.7 0.8C10.4 64.9 10.4 65.1 10.9 65.1zM12.2 52.6c0.3 0.3 0.3 0.8 0.8 0.8 1-0.7 1-1.2 0.5-2.7 -0.7 0-0.2 0.8-0.2 1C12.7 51.9 12.4 52.1 12.2 52.6zM15.7 109.4c0.3 0.5 0.8 0.5 1 0.8 0.5 0 0.5 0 0.8-0.5C16.9 109.4 16.2 109.1 15.7 109.4zM18.7 46.4c-0.2-0.2-0.5-0.5-0.2-1 -1 1-1.2 1.3-0.7 2C17.9 47.1 18.2 46.6 18.7 46.4zM19.2 43.4c-0.5-0.5 0.5-1.2-0.2-1.7C18.2 42.4 18.2 42.9 19.2 43.4zM21.4 41.4c-0.2-1-1-0.2-1.5-0.7l-0.2 0.3c0 0.3 0.3 0.3 0.5 0.5 -0.2 0.3-0.2 0.8-0.2 1.3C20.7 42.4 20.7 41.6 21.4 41.4zM23.4 37.4c-0.7 0.5-1.2 1-1.5 1.8C22.9 39.1 23.7 38.4 23.4 37.4zM26.4 31.9c0.5 0.8 0 1.3 0 2 -0.5 0-1 0-1.2 0s-0.2 0.5-0.7 0.3c0 0 0 0 0-0.2 0.3-1 1.3-1.7 1.8-2.7 0.3-0.2 0.5-0.5 1-0.2C27.2 31.4 26.4 31.4 26.4 31.9zM32.4 26.9c0-0.5 0.3-0.7-0.2-1.2 -0.5 0.3-0.8 0.5-1 1.3C31.7 26.9 31.9 27.1 32.4 26.9zM44.2 16.6c-0.7 0-1.2 0.5-1.2 1 0.3 0.5 0.5 0.5 0.8 0.3S43.9 17.1 44.2 16.6zM45.4 17.4c1-0.5 1.5-1.2 2-2 -0.7 0-0.7 0.8-1.2 1C45.4 16.6 45.4 16.6 45.4 17.4zM49.9 13.4c0.5 0 1 0.3 1.3 0.3 0.3-0.2 0.3-0.5 0-1C50.4 12.6 50.2 12.6 49.9 13.4z"/><path d="M194.2 14.1c-0.5-1.2-2-1.5-2.5-2.7 0-0.7 0.8-1.2 1.3-2 2.8 0 5.3-0.2 8-0.7 1-0.2 2.3-0.2 3.3 0.3 0.8 0.5 1.8 0.8 2.8 0.8 1 0.3 2 0.3 2.8 0.5 1.3 0.5 2.5 1.3 3.8 2 1.3 2 3 4.3 3.8 6.8 0.8 3 2 6 2.8 9.3 0.8 3.8 0.5 7.5 1 11.3 0.3 3 0 6.3 0.3 9.5 0 0.8 0 1.5-0.2 2.3 -1 3.3-1 6.8-1.7 10 -0.5 3-1 5.8-1.7 8.5 -0.7 3.8-0.5 7.5-1.2 11.3 0 0.3 0 0.3 0 0.5 0.5 3.5 0 7 0 10.3 0 1.8 0.3 3.3 0.5 4.8 0 1.5-0.2 3-0.5 4.5 -0.2 2 0 4.3-0.5 6.3 -0.2 0.5-0.2 0.8 0 1.3 0.3 2.5 0 5.3-0.5 8 -0.2 1.5-0.2 3-0.5 4.5 -0.2 3.8-0.2 7.7-0.7 11.5 0 1.3 0 2.5-0.2 3.8 0 2.5-0.2 5.3-1.5 7.8 -0.5 1-0.5 2.5-1.2 3.5 -0.5 1.3-1 2.3-2.2 3 -0.7 0.5-1.2 1.3-1.7 2 -0.5 1-1.2 1.8-2 2.5 -2.5 2-4.2 4.3-6 7 -0.5 0.3-1 0.3-1.7 0 -1.5-5-4.7-9.2-5.7-14.5 -1-4.5-1.2-8.7-1-13.2 0.3-7 0.8-14 0.8-21 0-3.7 0-7.5 0-11.2 -0.2-5.8-0.2-11.5 0.3-17.3 0-1 0-2-0.5-2.5 -0.7-0.5-1.2-0.2-1.7-0.2 -2.7 0.8-5.5 1-8.2 1 -1 0-2 0.3-3 0.5 -2.5 0.5-5.2 0.8-7.7 1.3 -2.2 0.8-4.5 1-6.7 1.5 -2.2 0.8-4.7 0.8-7 0.5 -0.7 0-1.5-0.2-2.2 0 -0.7 0.5-0.7 1.5-0.7 2.3s0 1.5 0 2c-0.5 4.3-1.7 8.3-2.5 12.5 -0.5 2-0.5 4.3 0.3 6.8 -0.2 0.5-0.5 1.3-0.7 2.3 -0.2 1.3-0.5 2.5 0 4 0.3 0.8 0 1.5 0 2.3 -0.5 0.5-0.7 1-1 1.5 -0.2 1.5 1.3 3.5-1 4.5 -0.2 3.5-0.5 7-0.7 10.2 0 1.3-0.2 2.3-1 3.3 -0.7 1.3-1.2 2.5-1.2 4.3 0.3 1.8-0.2 3.3-2 4.3 0 2.3-1.7 3.8-1.5 5.8 -2.2 2-4.2 4-5.2 6.8 -1.7 0.5-2.2 2.5-4.2 2.8 -0.5 0.8-0.7 1.5-1 2 -0.5 0.8-1.2 0.5-2 1 -0.2 0.3-0.2 0.8-0.5 1 -0.7 0.3-1.5 0.5-2.2 0.5 -0.2-0.2-0.5-0.5-0.5-0.7 -1-2.7-2-5.7-2.2-8.7 -0.2-3.5-0.7-7.2-0.7-10.7 0-2.2-0.2-4.5-0.2-7 0.3-3 0-6.2 0-9.2 0.3-5 0-10 0.5-14.7 0.5-2.7 0.8-5.5 1-8 0-0.7 0.3-1.2 0.8-1.7 -0.7-2-0.2-3.7 0.8-5.2 -0.5-1-0.5-2.3-0.2-3.3 0.8-6.5 0.8-13.2 0.3-20 0-1.7 0-3.7 0-5.5 -0.2-9.3-0.2-18.3-0.5-27.5 0-5.2 0.3-10.5 0.5-15.7s0.8-10.5 1-15.7c0-1.2 0-2.5 0-3.5 -0.5-1-1-1.5-1.5-2 0-0.7 0.3-1 0.8-1.7 2.2 0 4.2-0.5 6.5-0.7 4.5-0.7 9.3-0.7 14 0 2.5 0.5 4.8 1.8 6.3 3.8 1.5 1.5 1.8 3.5 2 5.5 0.3 1.3 0 2.8 0.5 4 0.3 0.8 0 1.3 0 2 -1 4.5-1.2 9.3-1.7 13.8 -0.2 1.5-0.2 3.3-0.2 4.8 0 0.8 0 1.8-0.5 2.5 0.5 3.3 0.5 6.3 0.5 9.5 0 1.8 0 3.8 0.5 5.8 0.5 2.3 0.5 4.8 0.5 7.3 -0.2 2.3 0 4.8 0 7 1 1 2 1 3 0.8 7-1.2 14.3-2.7 21.5-4 3.5-0.5 6.8-0.2 10.3 0 0.8 0.3 1.5 0.5 2.8 0C193.7 49.4 194.7 31.6 194.2 14.1z"/><path d="M256.2 153.9c-0.7 1.3-2 1.8-3 2.8 -0.5 0-1.2-0.2-1.7 0.3 -0.5 0.3-0.2 1-0.5 1.3 -0.5 0.3-1-0.2-1.5 0.3 -0.2 0.3-0.2 0.5-0.2 1 -0.5 0.3-1.2 0.5-1.7 1 -0.2 0.5 0 0.8-0.2 1.3 -0.5 0.8-1.2 0.5-1.7 0.5 -1 0-1.5 0.3-1.7 1 -0.5 1-1 1.3-2 1.5 -1-2.2-2.5-4-3.7-6 -1.5-3-2.7-5.7-3.5-9 -1-4-1.2-8-1.2-12.2 0-6 0-11.7-0.2-17.7 0-2.2-0.2-4.2-0.2-6.5 -0.2-3.5-0.2-7.2 0.3-11 0.3-1 0.3-2.2 0.3-3.2 0-6 0-12 0-18 0-4.7 0-9.2 0-14 0-3.5 0.3-6.8 0.5-10.3s0.3-7.2 0.3-10.7c0-2.7-0.2-5.7-0.2-8.5 0-1.5 0-3 0.3-4.5 0.3-2 0-4.2 0-6.5 0-0.7 0-1.7 0-3 0-0.7 0.3-1.7 0.5-2.7 0.5-1.5 0.5-3.5 0.5-5.2 -0.2-1.7-0.2-3.7 0-5.5 0-1.2-0.2-2.5-1-3.5 -0.2-0.7-0.5-1.5-0.7-2.2 0.5-0.5 0.8-0.2 1.3-0.2 2 0 4-0.7 5.8-1.5 0.8-0.2 1.5-0.5 2.3-0.2 2.3 0.3 4.5 0 6.8 1.5 1 1 2.5 1.8 3.8 2.5 1.8 1 1.8 2.8 2 4.3 0 0.3 0 0.5 0 0.8 2.3 1.8 2 4.5 2.8 7.3 1 0.8 1 2.3 1.3 3.3 0.5 1.8 1 3 1.3 4.5 0 1.8 0.5 3.3 0.8 4.8s0.8 3 1.3 4.3c0.8 2.3 1 4.8 1.3 7 0.3 3.5 0 6.8 0.3 10.3 0.3 2.5 0 5 0 7.8 0 3.3-0.5 6.8-0.5 10.3 -0.2 1.5 0 3 0 4.5 0.3 1-0.2 2.3-0.2 3.3 0 0.8 0 1.5 0.3 2.3 0.5 2.5-0.2 5.3-0.2 7.8 0 1 0 1.8 0 2.8 0.3 0.8-0.2 1.5 0 2.3 0 0.8-0.2 1.5 0 2.5 -0.5 7 0.3 14 0.3 20.8 0 3.5-0.7 7-0.2 10.5 0 0.3 0 0.5 0 0.8 0 1-0.2 1.7 0 2.7 0 0.8-0.2 1.3-0.5 1.8 0.3 1.3 0.3 2.5 0.5 3.5 0 0.8-0.5 1-0.7 1.5 0.5 2 0 4 0.3 6 0 0.3-0.2 0.5-0.5 0.8 0.5 1.5-0.7 2.8-0.2 4.3 -0.2 0.3-0.5 0.8-0.7 1 -0.2 0-0.5 0.3-0.7 0.5 0 1.8-1.7 2.5-2 3.8C257.4 154.1 256.7 153.9 256.2 153.9zM248.2 153.9c-0.5 0-1 0.3-1.2 0.3 -0.2-0.5 0.3-0.7-0.2-1 -0.5 0-1 0-1.7 0 0.5 0.3 0.5 0.5 0.8 1 -0.5 0.3-0.7 0.3-1 0.3 -1-0.2-1-1.5-1.5-2 -0.5 0.3-0.7 0.8-0.7 1.3s0.8 0 0.8 0.8c0 0.3-0.5 0.8-0.2 1 -0.2 0.8-1 0.5-1.2 1 0.3 0.5 0 1 0.3 1.3s0.5 0.3 0.8 0.5c0.5 0.5 0.3 1.3 1.3 1.3 0.3-0.2 0-0.7 0-1.2 0.5-0.2 0.8-0.2 1.3-0.2 0.3-0.2 0.3-0.5 0.3-1 -0.2-0.2-0.5-0.2-0.7-0.7 0.3-0.2 0.3-0.7 0.5-1 0.8 0.3 1.3 0.5 2 0C247.4 154.9 247.7 154.4 248.2 153.9zM248.9 154.6c-0.7 0.8 0.3 2-0.5 2.5 -0.7 0.3-1-0.7-1.7-0.5 0.5 1.5 2 1.8 2.8 0.5C249.2 156.4 249.7 155.4 248.9 154.6zM250.2 151.6c0-0.2 0.5-0.5 0.5-1 -0.5-0.2-0.7-0.5-1-1 -0.5 0.3-1 0.5-1.5 0.5 -0.2 0.5 0.5 0.5 0.5 1 -0.2 0-0.2 0.3-0.2 0.5 1 1.8 1.3 1.8 2.3 1.3C250.9 152.4 250.2 152.1 250.2 151.6zM251.9 152.9c0.8 0 1.3-0.2 1.8-0.7 -0.2-0.5-1-1 0-1.7 -1.2 0.3-0.7-1-1.7-0.7C251.7 150.6 251.4 151.9 251.9 152.9zM258.4 89.1c0 0.8-0.2 1.5 0.5 2.3 0.8-0.7 0.3-1.7 0.3-2.2 -0.2-0.5-0.7-0.7-1.5-0.7C257.9 88.6 258.4 88.6 258.4 89.1z"/><path d="M367.4 157.4c-1-0.2-2 1-3.2 0.8 0-0.5 0.5-0.5 0.5-0.7 -0.2-0.5-0.5-0.5-1-0.2 -0.2 0.5 0.3 0.8 0 1.3 -0.7 0.5-1.7 0.8-2.5 1 -1.5 1-3.2 1.3-5 1.8s-3.5 0.8-5.2 1.3 -3.7 0.5-5.7 1c-1.2 0.3-2.7 0.3-4 0.8 -1.5 0.3-2.7 0-4.2 0.3 -3.7 0.3-7.5 0.5-11.2 0.5 -3.2 0.3-6.5 0.5-9.7 0.3 0 0-0.2 0-0.5-0.2 -0.2 0 0.5-0.2 0.3-0.5 -0.5-0.2-0.5 0.5-0.7 0.5 -2.7 0-5.5-0.2-8.2-0.7 -5.7-1-11.2-2.2-16.2-5.5 -1 0-1.7-0.5-2.5-1.2s-1.7-1.5-2.7-2.2c-0.2 0-0.5-0.5-0.7-0.7 -1.5-2-2.7-4.5-4-6.7 -0.7-1.2-1.7-2.2-2.2-3.5 0-0.5 0.3-0.5 0.3-1 -1-0.5-1.2-1-0.5-2 -0.2-0.2-0.5-0.7-0.5-1 0.3-0.7 0-1.2 0-2 -0.2-1.2 0.3-2.5 0.3-3.7 0-0.5-0.2-2-0.2-2.2 0.3-0.7 0.8-0.5 1.3-0.5 -0.2-0.5-1-0.7-1-1.5 0-2.5 0.5-5 0-7.5 0.3-0.2 0.8-0.5 0.3-1.2 -0.2-0.5 0.3-1 0-1.7 0-0.2 0.3-0.2 0.5-0.5 -0.2 0-0.5 0.3-0.5 0 -0.5-0.5 0-0.7 0-1.2 -0.7-0.7 0.3-2-0.5-2.7 0-0.5 0.3-0.7 0.3-1 0.3-0.5 0.5 0 1-0.2 -0.5-0.5-1.2-0.2-1.2-1 0.3 0 0.5 0 0.8 0.3s0.3 0.3 0.8 0.3c-0.2-0.7-0.7-1.2-1-1.7 -0.2-0.2-0.2-0.5-0.2-0.7 0.3-0.7 0-1.2-0.2-2 0.3-0.2 0.8-0.5 0.5-0.7 -1.2-1.2 0.3-2.7-0.2-3.7 0-0.5 0.3-0.7 0.3-1 -1.2-1 0-2.5-0.5-3.7 0.3-0.2 0.3-0.7 0.5-0.7 0-0.5-0.5-0.8-0.5-1.3 0.3-0.5-0.2-1.5 0.5-2.2 -0.5-0.2-0.7-0.7-0.7-1.2 0.3-0.2 0.3-0.2 0.5-0.5 -0.7-1-0.7-2.5-0.7-3.7s-0.2-2.5-0.2-3.7c0-1 0.3-2-0.2-2.7 0.3-0.2 0.5-0.5 0.8-0.7 -0.2-0.5-0.5-0.7-0.5-1.2 0-0.2 0.3-0.2 0.3-0.5 0-1.2 0-2.2-0.7-3.5 0.5 0 0.5 0.3 0.8 0.5 0-0.5 0-0.7 0.3-1 -0.2-0.2-0.7-0.2-0.7-0.7 0.3-0.2 0.3 0.3 0.5 0.3 0.3-0.7 0.3-0.7-0.2-1.2 0-0.5 0.5-0.2 0.5-0.2 0.3-1.5-1.2-2.5-0.5-4 -0.5-0.5-0.5-1 0.3-1.2 -0.5-0.5-0.5-0.7-0.5-1.2 0.3-0.5 0.5-0.5 0.5-1 -0.5-2.5-1-5-0.2-7.8 -0.7-1.2-0.2-2.7-0.5-4.2 0-0.2 0.5-0.5 0.5-0.7s0-0.2 0-0.5c-0.5-1-0.2-2-0.2-2.7 0-3-0.2-5.7 0-8.5 0-1.7-0.2-3.5 0-5 0-1.5-0.2-3.2 0-4.7 0.3-2.7 0.5-5.5 0.5-8.2 -0.2-2.7 0-5.7-0.2-8.5 0-2 0.3-4 0.5-6 0-1.2 0.3-3-0.2-4.5 0.3-0.2 0.5-0.7 0.8-1 1.5-1 3.3-1.2 5.3-1.2 0.8 0 1.8 0 2.8-0.2 1.3-0.5 2.8-0.2 4.3-0.5 0.8 0 1.5-0.2 2.5 0 0.3 0.5 1 0.5 1.5 0.5 0.8-0.2 1.5 0 2.3 0.3 1 0.3 1.8 1 2.8 1 0.3 0.3 0.8 0.8 1 1.3 0.3 0 0.5 0 0.8 0 0.3 0.3 0.5 0.5 0.8 0.8 0.5 0.8 1.5 1.3 2 2.3 0.3 0.5 0.3 0.8 0.3 1.3 0.3 2 0.5 4 0.5 6.3 0 1.3 0.3 2.8 0.3 4 0 1 0 1.8 0.5 2.8 0.3 0.8 0.3 1.5-0.2 2.3 0.8 1.5 0.5 3 0.8 4.5 0 1.5-0.2 3-0.2 4.5 0 0.3-0.2 0.8-0.2 1.3 0.3 1.8 0.8 3.5 0 5.5 0.3 0.5 0.5 1.3 0 2 -0.2 0.5 0.3 1 0.3 1.5 0 2.5 0 5 0.3 7.8 0 0.3 0 0.8-0.2 1.3 -0.2 0.3-0.2 0.8-0.2 1 0.3 0.8 0.3 1.3 0.3 2 0 1.3 0 2.3 0 3.5 0.3 1-0.2 2-0.2 3 0 1 0.3 2 0 3 -0.2 0.5 0.3 0.8 0.5 1.3 -0.2 0.3-0.5 0.5-0.7 0.8 0.3 0.5 0.5 1.3-0.2 1.8 0.3 1.5 0.5 2.8 0.3 4.3 -0.5 1.8 0 3.8-0.5 5.8 0 0.8 0.3 1.5 0.3 2 -0.5 2.8-0.5 5.5 0 7.8 0 1.8-0.7 3.3-0.7 5 0.3 0.3-0.2 0.8-0.2 1.3 -0.2 1.3 0.3 2.8 0.3 4 -0.2 0.8 0 1.8-0.5 2.5 -0.2 0.5-0.2 0.8 0 1.3 0 1.3 0.3 2.8 0.3 4.3 -0.2 0.5 0 1.3-0.5 2 0.3 0.5 0.5 0.8 0.5 1.3 -0.5 0.8 0 1.8 0 2.5 -0.2 1.5 0.3 3 0 4.3 0 1-0.2 1.8 0.3 2.5 0.3 0.5 0 1.3-0.5 1.8 0.3 1.3 1 2.3 0.3 3.8 1 2.2-0.2 4.7 0.3 7.2 -0.2 0-0.5-0.2-0.7-0.2 -0.2-0.2-0.2-0.5-0.2-0.7 -0.2-0.5 0.3-0.7 0-1.2 -0.2 0-0.7 0.5-1 0 -0.5-0.5-0.2-1.2-0.7-2 -0.5 1-0.7 2 0.3 2.8 0.3 0.3 0.5 0.3 0.8 0.3 0 0.5 0.5 1 0.3 1.8 0.8-0.5 1.3 0 1.8 0 0.3 1 0.8 1.8 0.3 2.8 0.5 0.3 0.5 1 1 1.3 -0.2 0.5-0.2 1-0.2 1.5 -0.2 0.5-0.7 0-1.2 0.3 0 0.5 0.5 0.3 0.8 0.8 -0.7 0.5-1-0.2-1.7-0.2 0.3 0.5 0.5 0.8 0.8 1.3 0.5 0 1-0.5 1.3 0 0.3 0 0.3-0.5 0.8-0.5 0.3 1.5 1 2.5 2 3.5 0.5 0.3 1 1 1 1.5 0.3 0.8 0.8 1.3 1.3 1.8 -0.2 0.3-0.5 0-0.7 0.3 -0.2-0.2 0-0.7-0.5-0.7 -0.5 0.8-1.2 1.3-0.7 2.3 0.3-0.5 0.5-1 0.8-1s0.5 0.8 1 0.3c0.3 0.3 0 0.8 0.3 0.8 0.3-0.2 0.5-0.5 0.5-0.7 0.8 0.3 0.5 0.8 0.5 1 0.5 0.8 1 0.5 1.5 0.5 1 0.8 1.8 1.5 3 1.8 0.5 0.3 1 1 1.8 1.3 1 0.8 2.3 0.8 3.5 0.8 0.5 0 1 0 1.3 0.5 0.3 0 0.5-0.2 0.8-0.2 2.3 0.8 4.5 0.3 6.5 0.3 2.3 0.3 4.5 0 6.5 0 1 0 2.3 0.3 3.3 0 0.8-0.2 1.8 0 2.5 0 1.5 0 3-0.2 4.5-0.5 2.3-0.2 4.5-0.5 7-0.7 1.8 0 3.5-0.5 5.3-0.2 0.5 0 1-0.2 1.5-0.2 0.3 0 0.5 0.3 0.5 0.5 1.5 0 3 0 4.3-0.5 0.5 0.3 0.8 0.8 1 1.3 0 0.3 0.5 0 0.8 0.5 0 0.3 0.3 0.5 0.3 0.8 0.5 0.5 1 1 1.8 1.3C368.2 156.6 367.9 156.9 367.4 157.4zM279.7 131.9c-0.2-0.2-0.7-0.5-1-0.2 0.5 0.5 0.3 1.3 0.8 1.8 -0.2 0.3-1 0.3-0.7 0.8 0.3 0.3 0.5 0.3 1 0.3C280.4 133.4 279.9 132.6 279.7 131.9zM280.4 113.9c-0.5 0-0.5-1-1-0.7 -0.5 0.5 0 0.8 0.3 1.3 -0.5 0.3-0.7 0.8-0.5 1.3 0.5-0.2 0.8-0.5 1.3-0.5C280.4 114.6 280.2 114.1 280.4 113.9zM293.4 138.9c-0.2-0.2-0.5-0.2-0.7-0.5 -0.5 0.3-0.7 0.3-1.2 0.3 0.3 0.8 0.3 1.5 1.3 1.5C292.9 139.6 293.4 139.4 293.4 138.9zM298.2 133.6c-0.2-0.7-0.2-1.2-0.2-1.7 0.5-0.7 1.3-1 1.8-2 -0.7 0-1.5 0.3-2.2-0.2 -0.2 0.5-0.2 1-0.5 1.3 -0.2 0-0.5-0.2-1-0.5 -0.2 0.3-0.5 0.3-0.5 0.8 1-0.2 1 1.3 2 0.8 0 0.5-0.5 0.5-0.2 0.8C297.9 132.4 297.4 133.4 298.2 133.6zM300.9 139.9c0-0.5-0.5-0.7-0.5-1.5 -0.2 0.3 0 0.8-0.5 0.8 -0.7 0.3-1.5 0-1.7 1 0.3 0.3 0.5 0 0.5 0.3 -0.2 0.3-0.7 0.3-1.2 0.5 0 0.5 0 0.5 0.5 0.8 0.5-0.5 0.8-0.7 1.3-0.7 0-0.2 0.3-0.2 0.3-0.2 0-0.2 0-0.5 0-0.5C300.2 140.6 300.4 140.4 300.9 139.9zM301.9 38.4c0 0.5 0.3 0.8 0.5 1.3 0 0.3-0.7 0.5-0.2 1.3 0-0.7 1-0.7 1-2C302.7 38.9 302.2 38.6 301.9 38.4zM303.7 137.6c0-0.5 0-0.7 0-1.2 -0.7-0.2-0.7-1-1.7-0.7C302.7 136.1 302.7 137.4 303.7 137.6zM302.4 128.6c-0.2 0.3 0.3 0.3 0 0.5 0 0.3-0.5 0.5-0.2 0.8s0.8 0.3 1 0.3C302.9 129.6 302.9 128.9 302.4 128.6zM303.2 146.4c0 0.5-0.2 0.5-0.5 0.8 0 0.5 0 0.8 0 1.3C303.7 147.6 303.9 146.9 303.2 146.4z"/><path d="M339.3 116.7c-1.7-0.5-2.9-1.5-4.4-2.5 -1-0.4-1.9-1.1-2.7-1.3 -0.2-0.2 0-0.4 0.2-0.5 1.3-0.4 2.3-1.6 3.1-2.6 1.2-1.3 2-3 3.2-4.3 1.8-2.1 3.6-4.3 5.4-6.4 2.2-2.5 4.3-4.9 6.5-7.1 1.5-1.3 2.9-2.8 4.3-4.2 0.8-0.6 1.7-1.4 2.3-2.3 1.5-1.3 3.1-2.6 4.4-4 1-0.8 1.8-1.8 2.7-2.6 1.6-1.6 3.1-3.3 4.9-4.7 1.5-1.3 2.7-3 4.5-4.4 1.5-1.3 3.3-2.7 4.8-4.4 1.2-1.3 2.4-2.6 3.5-3.9 1.7-1.4 3.3-3.1 5-4.5 2.1-1.8 4.2-3.9 6.4-5.7 1-1.2 1.9-2 3.1-2.9 2.3-2.3 4.9-4.7 7.5-6.6 1.7-1.4 3.1-2.9 4.5-4.4 1-0.8 1.9-1.6 2.9-2.4 1.3-1.1 2.7-2.2 4-3.4 1.5-0.9 3.2-2 4.5-3.2 2.8-2.1 5.4-4.5 8-6.7 2.7-2.2 5.3-4.1 8-6.4 1.3-0.8 2.5-1.7 4-2.7 3.2-2 6.4-3.7 10-4.8 1.3-0.4 2.9-0.8 4.4-1 0.5-0.1 1.4-0.2 2.2-0.5 0.5 0.9 0.2 1.8 0.5 2.9 0.1 0.5-0.3 0.9-0.5 1.4 -0.6 0.8-0.5 1.4 0.4 2 0 1.6-1.3 2.7-2.5 3.7 -0.2 0.5-0.4 1-0.7 1.5 -0.2 0.5-0.3 0.9 0.2 1.4 1.3 1.5 2.9 3.1 4 4.8 0.5 0.6 0.6 1.1 0.7 1.7 0.5 0.9 0.9 1.9 1.2 2.6 0.6 1.1 0.8 2.6 1.5 3.7 0.1 0.9 0.9 1.9 1.2 2.9 0.1 0.9 0.5 1.8 0.6 2.7 0.1 0.9 0.4 1.6 0.7 2.4 0.2 1.4 0.6 2.7 0.7 4 -0.3 0.9 0.4 1.3 0.5 1.8 0 0.4 0 0.4 0 0.4 -0.3 1.2 0 2.3 0.4 3.2 0 0 0.2 0.2 0.1 0.5 0.2 2.1 0.3 4.3 0.7 6.3 0 0.4-0.1 0.7 0.1 0.9 0 2 0 3.9-0.1 5.7 0 1.6 0.1 3.2-0.1 5 -0.3 0.9-0.3 1.6-0.4 2.3 -0.1 0.7-0.1 1.4-0.3 1.9 -0.3 1.2-0.5 2.1-0.6 3.1 -0.3 1.2-0.7 2.2-1 3.5 -0.3 1.6-1.1 2.9-1.8 4.5 -0.9 2.1-1.8 4.1-2.7 6.2 -0.6 1.2-1.2 2-1.9 3.2 -0.6 0.5-0.6 1.2-1.1 1.9 -0.5 1.4-1.6 2.3-2.1 3.7 -1 0.8-1.8 1.8-2.2 2.8 -0.4 1-1.1 1.9-2 2.7 -0.1 1.1-0.7 1.9-1.5 2.5 -0.8 1-1.4 1.8-1.8 2.9 -0.6 1.2-1.3 2.4-2.4 3.3 -0.2 0.2-0.4 0.7-0.6 0.8 -0.4 1-1.4 1.8-2.2 2.5 -0.6 0.5-1 1.2-1.9 1.3 0 0.4 0.3 0.4 0.1 0.5 -0.8 1-1.2 2-2.4 2.6 -0.3 1.2-1.2 1.3-1.8 1.8 -0.2 0.2-0.4 0.3-0.4 0.3 -0.8 1.3-1.9 2-2.9 3.1 -0.2 0.5-0.7 0.3-1 0.8 -0.4 0-0.9-0.3-1.2 0.1 0 0.4 0.1 0.9-0.1 1.1 -0.5 0.1-0.7-0.1-0.9 0.1 -0.3 0.9-1.5 0.9-1.9 1.6 -0.2 0.2-0.4 0-0.7-0.1 -0.4 0-0.4 0.3-0.6 0.5 -0.4 0-0.7-0.1-1.1-0.1 -0.1-0.9 0.8-0.6 1-0.8 0-0.4-0.3-0.4-0.3-0.4 0.2-0.5 0.8-0.6 0.8-1.3 -0.9 0.5-1.7 1.1-2.3 1.9 0 0 0.4 0 0.3 0.4l-0.2 0.2c0 0.4 0.3 0.4 0.3 0.7 -0.4 0.7-1.1 0.3-1.5 0.9 -0.2-0.2-0.4 0-0.7-0.1 -0.4 0.7-1.1 1-2 1.1 -0.2-0.2 0-0.4-0.1-0.5 -0.5 0.1-0.3 0.9-0.6 1.2 -0.4 0-0.7-0.1-1.1-0.1 -0.4 0.7-1.3 0.4-1.7 1.1 -0.2 0.2-0.5-0.2-0.9 0.1 -0.6 1.2-2.2 0.9-3 1.9 -0.8-0.6-1.6-0.3-2.3 0 -0.9-0.3-1.6-0.3-2.5-0.2 -1 0.8-2.2 1.2-3.7 1.5 -0.2-0.2-0.5-0.2-0.9-0.3 -0.2-0.2-0.2-0.2-0.4 0 -0.9 0.5-2.1-0.2-3 0.3 -1.4-0.1-2.9 0.8-4.3 0.3l-0.4 0c-0.9 0.5-2 0.4-2.8-0.2 -0.5-0.2-1.2 0.1-1.6-0.3 -0.4 0-0.4 0.3-0.5 0.1 -0.9 0.1-1.4-0.1-2 0.4 -0.4 0-0.5-0.2-0.7-0.4 -0.7 0.3-1.2 0.1-1.8-0.2 -1.6 0-3.3 0.8-4.8 0.1 -0.4 0-0.5-0.2-0.7-0.4 -0.2 0.2-0.5 0.1-0.5 0.1 -0.4 0-0.1-0.5-0.6-0.8 -0.2-0.2-0.4 0.3-0.6 0.5 -0.2 0.2 0.3 0.4 0.1 0.5 -0.5 0.1-0.9 0.1-1.4-0.1 -0.5-0.2-1.1-0.1-1.6-0.3 -1.4 0.2-2.8 0.1-3.1-1.3 -0.9-0.3-1.6-0.3-2.1-0.5 -0.7-0.4-1.3-0.8-2.2-0.7 -0.5-0.2-1.2-0.6-1.7-1.2 -0.8-0.6-1.7-1.2-2.7-1.3 -0.2 0.2-0.4 0-0.4 0 -0.4 0-0.4 0-0.4 0 -0.2-0.2 0.2-0.5 0.1-0.7 -1-0.8-1.3-0.8-2.2-1.1 -0.4 0-0.3-0.4-0.7-0.4 0 0-0.4 0-0.5 0.1 -1-0.4-1.5-1-2-1.9 -0.2 0.2-0.4 0.3-0.4 0.3 -0.8-1-1.6-1.6-2.5-2.2 0.4-0.7 0.5-0.1 0.9-0.1 0 0 0.2-0.2 0.4-0.3 -0.1-0.5-1.2-0.6-1.8-0.2 0 0-0.4 0-0.3-0.4 0-0.4 0.1-0.7 0.1-1.4 -0.2-0.2-0.3-0.4-0.5-0.6 0-0.4 0.1-1.1 0.1-1.4 -0.1-0.5-0.3-0.7-0.8-0.6 -0.7 0.3 0.3 0.4 0.1 0.9 -0.4 0-0.5-0.2-0.8-0.6 0-0.4 0.1-0.7-0.3-1.1 -0.2-0.2-0.4 0-0.5-0.2s-0.1-0.5 0.1-0.7c0.2-0.5 0.1-1.1-0.2-1.4 -0.3-1.1-1.1-2-0.4-3.2 -0.7-0.4-1.1-0.1-1.4 0.2 -0.3-0.4 0.3-0.9-0.2-1.4 -0.5-0.2-0.7-0.1-1.2 0.1 -0.4 0.3-0.9 0.5-1.3 1.1 -1 0.8-2.1 1.4-2.8 2.1 -0.4 0.3-1 0.8-1 1.2 -0.4 0.3-0.8 0.6-0.8 1C341.3 117 340.2 116.9 339.3 116.7zM429.4 24.5c0-0.4 0.6-0.8-0.1-1.2 -0.2 0.5-0.6 0.8-0.7 1.5C429.1 24.8 429.2 24.7 429.4 24.5zM360.4 106.8c0.2-0.5 0.6-0.5 0.9-0.5 0.5 0.2 0.6 0.8 0.6 1.1 -0.2 0.5-0.7-0.1-1.1-0.1 -0.3 0.9-0.3 0.9 1.2 1 0.1 0.9-1.3 0.4-1.3 1.1 0.5 0.6 1.1 0.1 1.4-0.2 0 0.4-0.2 0.5-0.3 0.9 0.2 0.2 0.3 0.4 0.3 0.7 0 0 0.2 0.2 0.5-0.1 -0.2-0.2-0.2-0.2-0.3-0.4 0.6-0.5 0.7-0.3 0.9 0.3 0.3 0.4-0.2 0.5-0.6 0.8 0.3 0.4 0.5 0.9 1 1.1 0.6-0.5 0.3-1.2 0.9-1.7 -0.3-0.4-0.9 0.1-1.2-0.3 0.4-0.7-0.1-1.2 0.2-1.8 -0.2-0.2-0.3-0.4-0.5-0.2 0 0-0.2 0.2 0 0.4 0-0.4-0.7-0.4-0.5-0.9 0.2-0.2 0.5 0.2 0.5-0.1 0.2-0.2 0.2-0.5 0.4-0.7 0.4 0 0.7 0.4 1 0.4 0 0.4 0.1 0.5 0.3 0.7 0.5-0.1 0.5 0.2 0.7 0.4 0.4 0 0.7-0.3 0.9-0.1 0.4 0 0.3 0.4 0.5 0.6 0.5-0.1 1.3-0.4 1.6 0.3 0 0.4-0.4 0.3-0.3 0.9 0.3 0.4 0.8 0.6 1.5 0.7 0.2 0.2 0 0.4 0.1 0.5 0.6-0.5 1.2 0.3 2 0 0 0 0-0.4 0.4-0.3 0.3 0.4 0.5-0.1 0.9-0.1 0.2 0.2-0.2 0.5-0.1 0.7 0.4-0.3 0.7-0.3 1.3-0.4 0.1 0.5 1.2 1 1.3 0.8 0.2-0.2 0-0.4 0.2-0.5 0.2-0.2 0.4-0.3 0.9-0.1 0 0.4-0.1 0.7 0.1 0.9 0.8 0.6 1.1-0.3 1.6-0.4 0.5 0.2 0.7 0.4 1 0.4 -0.3-0.7 0.7-0.3 0.6-0.8 -0.5 0.1-1.1-0.1-1.6 0 0-0.4 0.6-0.5 0.3-0.9 -0.1-0.5-0.5-0.2-0.9-0.3 -0.2-0.2-0.5-0.2-0.6-0.8 1 0.8 2.3 0 3.1 1 0.2-0.2 0.4-0.3 0.7-0.3 0.7 0.1 1.2 0.3 2.1 0.2 2.1 0.2 4.2 0.7 6.7 0.6 0.2-0.2 0.5-0.1 0.9 0.3 0.2 0.2 0 0.4 0.1 0.5 0.7 0.4 0.7-0.3 1.3-0.4 0.4 0 0.5 0.6 0.9 0.3 0.2-0.2-0.3-0.4-0.1-0.5 1.8-0.5 3.6 0 5.5 0 1.8-0.2 3.7-0.2 5.5-0.4 0.3 0.4 0.1 0.9 0.6 0.8 0.2-0.2 0.1-0.7 0.4-1 1.2-0.1 2.5-0.5 3.9-0.4 0-0.4 0-0.4 0.4-0.3 0.4 0 0.5-0.1 0.9-0.1 3.1-1 6.1-2.5 8.9-4.2 1.7-1.1 3.4-1.8 4.9-3.1 0.6-0.5 1.3-0.8 1.9-1.3 0.8-0.6 1.5-1.3 2.1-1.8 1.1-1 2.1-1.8 3.1-2.9 1.6-1.6 2.9-3.1 4.3-4.9 0.8-1 1.8-2.1 2.4-3.3 0.8-1.3 1.8-2.5 2.6-3.8 0.6-1.2 1.4-2.2 2.1-3.4 1.2-1.7 2.1-3.4 2.9-5.1 1.1-1.9 2.3-3.5 3.3-5.4 1.6-4.3 3.4-8.4 4.5-12.9 0.9-4 1.2-7.9 1.4-11.9 0-3.9-0.4-7.8-1.1-11.5 -0.7-2.4-1.6-4.6-2.4-6.8 -0.1-0.5-0.1-0.9-0.8-0.6 -0.1 0.7-0.5 1.7-0.9 2.4 -0.6 0.8-1.2 1.7-1.8 2.1 -1 0.8-2.1 1.4-2.9 2.4 0 0-0.2 0.2-0.5 0.1 -0.4 0.3-0.8 0.6-1.1 1 -0.8 0.6-1.2 1.7-2 2.3 -1.2 1.3-2.5 2.4-4 3.4 -1.9 1.6-4 2.7-5.8 3.9 -0.8 0.6-1.5 1.3-1.9 2 -0.8 1-1.8 1.8-2.6 2.8l-0.2 0.2c-0.7 0.3-1.1 0.6-1.3 1.1 -0.2 0.2-0.4 0.3-0.8 0.6 -0.9 0.5-1.3 1.1-2.1 1.8 -1 0.8-1.8 1.8-2.7 2.6 -1.1 0.6-1.9 1.6-2.7 2.6 -1 1.2-2.3 2.3-3.5 3.2 -0.8 0.6-1.3 1.1-1.9 1.6 -1.1 1-2.1 1.8-3.4 2.5 -1.4 1.5-2.9 3.1-4.8 4.4 -0.2 0.2-0.4 0.3-0.6 0.5 -0.9 0.5-1.7 1.1-2.5 1.7 -0.4 0.3-0.8 0.6-1 1.2 -1.1 0.3-1.8 0.5-2.4 1.4 -0.6 0.5-1.1 1-1.7 1.4 -0.7 0.3-1.1 1-1.7 1.1 -3.4 2.9-6.7 5.3-10.3 7.6 0 0.4-0.3 0.9-0.8 1 -1.1 0.6-2.3 1.6-3.4 2.2 -0.8 0.6-1.3 1.1-1.9 1.6 -2 1.1-3.6 2.3-5.1 4 -0.6 0.5-1 0.8-1.7 0.7 -0.6 1.2-1.4 1.8-2.5 2.4 -0.4 0.3-0.9 0.5-1.3 0.8 -1.5 1.3-3.1 2.6-4.8 3.7 -1 0.8-1.9 1.3-2.8 2.1 0.1 0.9-0.5 1.4-1.2 1.7 -0.2 0.2-0.7 0.3-0.8 0.6 -0.6 0.8-1.5 1.3-2.1 1.8 -0.7 0.3-1.1 0.6-1.5 1.3 0.2 0.2 0 0.4 0.1 0.5 1.1 0.1 1.8 0.2 2.7 0.1 0 0.4-0.2 0.5-0.6 0.8 0.5 0.9-0.2 1.8-0.1 2.7 0.5 0.2 0.7-0.3 1.1-0.3 0.8 0.6 0.9 1.9 1.8 2.1 0.1 0.5 0.5 0.9 0.1 1.2 0.2 0.2 0.3 0.4 0.5 0.6 -0.6 0.5-1.1 0.3-1.8 0.5 0.2 0.2 0.2 0.2 0.1 0.5 0 0-0.4 0-0.4 0.3 0 0.4 0.5 0.6 0.6 0.8 0.4 0 0.7 0.1 1.2-0.1 0.2 0.2-0.1 0.7 0.5 0.6 0-0.4-0.3-0.4-0.1-0.5 0.2-0.5 0.4 0 0.7 0.1 0.4 0 0.7 0.1 0.6-0.5 -0.2-0.2-0.5-0.2-0.7-0.4 -0.2-0.2-0.1-0.5 0.1-0.7 -0.4 0-0.5 0.1-0.7 0.3 -0.1-0.5 0.4-0.7 0.6-0.8 0-0.4-0.3-0.7-0.2-1.4 0.4 1.3 1.5 1 2.4 1.3 -0.1 0.7 0.8 1 1.1 1.7 0.4-0.3 0.7-0.3 0.9-0.5 0-0.4-0.3-0.7-0.3-1.1 -1.1-0.1-0.8-1-1.7-1.2 -0.5 0.1-0.7-0.4-1.2-0.6s-0.6-0.8-1.2-1c0.2-0.5-0.1-0.9-0.1-1.2 0.4-0.3 0.4-0.7 0.3-1.2 0.4 0 0.7 0.1 1.1 0.1 0.2 0.2 0 0.4 0.1 0.5 0.4 0 0.5-0.1 0.6-0.5 -0.3-0.4-0.5-0.2-0.9-0.3 -0.5-0.9-1.3-1.2-1.6-1.9 -0.5-0.2-0.9-0.3-1.2-0.3 0.2-0.5 0.2-0.5 1.4-0.2 0.4 0 0.1 0.5 0.7 0.4 0.2-0.2-0.3-0.4-0.1-0.5 0-0.4 0.4-0.3 0.4-0.7s0.1-0.7 0.3-1.2C360.3 107 360.3 107 360.4 106.8zM394.7 150.1c-0.5 0-0.5 0.5-0.7 0.8 0.3 0.3 0.5 0.3 0.8 0.3C394.9 150.9 394.9 150.6 394.7 150.1zM396.9 141.4c0-0.2-0.2-0.2-0.5-0.5 -0.5 0-0.7 0.3-0.7 0.5s0 0.8 0.3 1c0.3-0.2 1-0.2 1-0.7C396.9 141.6 396.9 141.6 396.9 141.4zM399.7 146.6c-0.5 0.3-0.7 0.8-0.7 1.3 -0.5 0-0.2-0.5-0.5-0.5 -0.2-0.2-0.2 0.3-0.5 0.3s-0.2-0.2-0.5-0.5c0.8-0.5 1.8-0.5 2.3-1.2C399.9 146.1 399.9 146.4 399.7 146.6zM401.7 143.9c0 0.5 0 1-0.5 1.3 0.3 0.5 0.5 0.5 1 0.5s1.3-0.2 2-0.5c1.3 0 1.3-0.2 1.5-1.5 0-0.5-0.2-0.5-0.5-0.7 -0.7 0-0.5 1-1 1.3 -0.5 0-0.5-0.5-0.7-0.7C402.9 143.4 402.4 143.9 401.7 143.9zM403.7 140.1c0-0.2-0.2-0.7-0.5-1 -0.2 0.3-0.7 0.3-1 0.5 0 0.5 0 0.5 0.5 1C403.4 140.4 403.4 140.4 403.7 140.1zM406.9 135.1c-0.2 0.3 0 0.5 0 0.8s-0.2 0.3-0.2 0.5c-0.5 0.3-0.5 0-0.7 0 -0.2 0.3-0.5 0.5-0.7 0.5 -0.2-0.5 0.3-0.7 0.5-1.2 -1-0.2-1 1-2 0.8 0.8-0.7 1.8-1.5 2.5-2 0.8-0.2 1-1 1.8-1.2 0.3 0 0.3-0.2 0.3-0.5 0.3-0.2 0.5 0 0.5 0 0.3-0.2 0-0.5 0.3-0.5 0-0.2 0.5-0.2 0.5-0.5 0.3 0 0.3-0.2 0.5-0.5 0 0 0 0 0.3 0.3 0 0.5 0 1-0.5 1.3 -1 0.5-1.7 1.3-2.7 1.8C406.9 134.6 407.2 135.1 406.9 135.1zM406.2 142.4c0.3-0.2 0.5-0.2 0.5-0.5 -0.2-0.2-0.5-0.5-0.5-0.5 -0.5 0-0.7 0-1 0.3C405.4 142.1 406.2 141.9 406.2 142.4zM406.4 152.9c-0.2-0.2-0.2-0.2-0.7-0.2 -0.2 1-0.2 1.3 0.3 1.8 0.3-0.2 0.5-0.2 0.8-0.2C406.7 153.6 406.7 153.4 406.4 152.9zM407.4 144.1c0-0.2-0.2-0.7-0.5-1 0-0.2-0.2-0.2-0.5 0 0.3 0.5-0.5 0.8-0.2 1.3 0.5 0 0.3-0.5 0.5-0.5S407.2 144.4 407.4 144.1zM409.2 145.4c-0.5 0.3-0.5-0.5-1-0.2 0 0.3 0 0.8-0.2 1C408.4 146.1 408.9 146.4 409.2 145.4zM409.2 152.1c-0.2 0.5-0.5 0.5-1 0.5 0 0.8 0.3 0.5 0.8 0.5C408.9 152.9 409.2 152.6 409.2 152.1zM409.9 139.6c-0.2-0.5-0.5-0.2-0.7-0.5 -0.2 0-0.5 0.3-0.5 0.5C409.4 139.9 409.4 139.9 409.9 139.6zM409.2 155.1c-0.2 0.3-0.2 0.3-0.2 0.5s0.3 0.3 0.5 0.3c0-0.2 0.3-0.2 0.8-0.5C409.7 155.4 409.4 155.1 409.2 155.1zM409.4 142.9c0.3 0.3 0.3 0.3 0.5 0.5 0.3-0.2 0.5-0.5 0.5-0.2 0.3 0.3 0 0.5 0 0.8 0.8-0.2 0.5-0.7 0.8-1.2 0-0.2 0.5 0 0.5-0.2 -0.5-0.2-0.7-0.2-1.2-0.2C410.4 142.6 409.9 142.9 409.4 142.9zM411.7 145.6c0-0.2 0.3-0.5 0-0.7 -1.2 0.3-1.2 0.5-1.2 1.3C410.9 146.1 411.2 145.9 411.7 145.6zM411.4 153.4c-0.2 0.8-0.7 0-1 0.5 0 0.5 0.5 0.5 0.8 0.8C411.9 154.4 411.4 153.9 411.4 153.4zM410.9 135.9c0.3 0.5 0.5 0.5 0.8 0.5 0.3-0.5 0-1 0.3-1.5C411.7 135.4 411.2 135.6 410.9 135.9zM411.9 137.9c0 0.5 0 0.5 0.5 0.5 0.8 0 0.8-0.7 1-1.2C412.7 137.1 412.4 137.6 411.9 137.9zM412.9 154.1c0.3 0 0.5 0 0.8 0 0-0.5 0-0.7 0-1C412.9 153.1 412.7 153.4 412.9 154.1zM421.9 122.9c0.8-0.7 1.3-1.7 1.8-2.5 0.3-0.2 0.5 0.3 0.8 0 -0.2-0.5-0.2-0.7-0.7-0.7 -0.5 0.5-1.2 1-1.7 1.8 -0.2 0.3 0.3 0.5-0.2 0.8 0 0-0.5 0-0.7 0 -0.2 0.3-0.2 0.3 0 0.5 0 0.5-0.2 0.8-0.7 1 -0.2 0-0.2 0-0.5 0 -0.7 0.3-1 1-1.7 1 -0.2 0.5-0.2 0.8-0.5 1.3 -0.7 0-0.7 0.8-1 1.3 -0.2 0.3-0.5 0-0.7 0.3 -0.2 0-0.2 0.3-0.2 0.5 -0.2 0-0.5 0-0.7 0.2 0 0.3 0 0.3 0 0.5 -0.2 0-0.5 0-0.7 0.3 -0.2-0.5 0.3-0.5 0.5-0.7 0 0 0-0.2-0.2-0.5 -0.5 0.3-0.5 0.5-0.7 1 0 0.3 0.3 0.5 0.5 0.8 0.3-0.5 0.5-0.5 1-0.5 0 0 0 0-0.2-0.2 1 0 1.8-0.7 2.5-1 -0.2-0.2-0.2-0.5 0-0.7 0.8-0.5 1.3 0 2 0 -0.2-0.2 0-0.5 0-0.7 -0.2-0.2-1-0.2-0.7-0.7 0.5-0.2 0.5 0 1 0 0.3-0.5 0.8-1 1.3-1.5 0.3-0.2 0.5-0.7 0.3-1.2C421.4 122.9 421.7 122.9 421.9 122.9zM418.9 142.6c-0.7 0.3-1 0.5-1.5 1 0.8 0.3 0 0.5 0.3 1 0.5 0.3 0.5-1 1-0.5C418.9 143.6 418.2 143.1 418.9 142.6zM418.9 137.9c0 0.3 0.5 0.3 0.3 0.5s-0.7 0.3-0.7 0.5c-0.2 0.5 0.3 0.5 0.3 1 -0.2 0.3-0.5 0.3-0.7 0.3 0 0.3 0 0.5 0 0.8 1-0.5 1.5-1.2 1.5-2.2 0.8 0 1-0.5 0.8-1C419.9 137.6 419.4 137.6 418.9 137.9zM420.9 136.6c0-0.2 0.5-0.2 0.5-0.7 -0.5-0.2-1 0.3-1.5 0.3 0 0.5-0.2 0.8 0.3 1 0.3-0.2 0.8 0.3 1 0.3C421.4 136.9 420.9 136.9 420.9 136.6zM422.2 132.6c0-0.2 0.3-0.7-0.2-1 -0.2 0-0.5 0.3-0.5 0.5C421.4 132.6 421.7 132.9 422.2 132.6zM425.2 144.4c-0.7 0.3-1 1-1.7 0.8 -0.2 0-0.2-0.2-0.5-0.2 -0.2 0.5 0.3 0.5 0.5 0.8C424.7 145.4 425.2 145.1 425.2 144.4zM425.2 118.9c1-0.2 1-1.2 1.3-2 0.3-0.2 0-0.2-0.2-0.2 -0.7 0.3-1 1.3-1.7 2C424.7 118.9 424.9 118.9 425.2 118.9zM437.7 70.6c0 0.3 0.3 0.5 0.5 0.5s0.5 0 0.5-0.5C438.2 70.1 437.9 70.4 437.7 70.6zM443.2 127.1c0-0.2 0-0.2-0.2-0.2 -0.5 0.5 0.3 1.2-0.5 1.2 0.3 0.5 0.3 0.8 0.3 1C442.9 128.4 443.4 127.9 443.2 127.1zM442.9 123.9c-0.2 0-0.2 0.3-0.2 0.8 0 0 0 0.3 0.3 0.3s0.5-0.2 0.5-0.2C443.4 124.1 443.4 123.9 442.9 123.9zM442.9 116.4c0 0.5-0.5 0.8 0 1.3 0.3-0.5 0.5-0.7 0.5-1.2C443.2 116.1 442.9 116.1 442.9 116.4zM447.9 120.4c0.5 0 0.8-0.5 0.5-1 -0.5-0.2-0.5 0-0.7 0.3 0 0-0.2 0-0.5 0C447.2 120.4 447.7 120.1 447.9 120.4zM450.4 111.9c0.3 0.3 0.5 0.3 0.8 0 0-0.2 0-0.7 0-1C450.4 111.4 450.4 111.4 450.4 111.9zM451.7 114.6c0.3-0.2 0.3-0.2 0.5-0.5 -0.2-0.2-0.5-0.5-0.7-1C450.9 113.9 451.4 114.1 451.7 114.6zM452.7 113.4c0.3 0 0.5-0.2 0.3-0.5s-0.5-0.5-1-1C451.7 112.6 452.7 112.9 452.7 113.4zM454.7 95.4c0 0.5 0.5 1 0.3 1.5 0.3-0.2 0.3-0.5 0.5-0.5 0-0.2 0.5 0 0.5-0.5 -0.2-0.2-0.5-0.7-0.5-1.2 -0.2 0-0.2-0.2-0.5 0 -0.2 0-0.5 0.3-0.7 0.5C454.4 95.1 454.7 95.1 454.7 95.4zM454.7 102.9c0-0.7 0.8-0.7 1-1.2 0.3-0.2 0.3-0.7-0.2-1 -0.2 0.3 0 0.8-0.2 0.8 0 0.5-0.5 0.5-0.7 0.8C454.4 102.4 454.2 102.6 454.7 102.9zM454.9 93.9c0.8-0.2 0.5-0.7 1-1 -0.5-0.2-0.7-0.5-1.2-0.5C455.2 92.9 455.2 93.4 454.9 93.9z"/><path d="M497.7 138.6c0 1 0.3 1.8 0.5 2.8 0.5 1.8 0.3 3.5 0.5 5 0.5 2.3 0.3 4.8 0.3 7 0 0.8-0.2 1.5-0.7 2 0.5 2-0.7 3.5-1.5 5.3 0 0.5-0.2 1-0.5 1.3 -0.5 2-1.5 3.8-3.2 5 -0.7 0.8-1.2 1.5-1.7 2.3 -1.2 0.3-2.5 0.3-3.5 1 -0.7 0.3-1.7 0-2.5 0 -1.2 0-2.7 0.3-4-0.2 -1-0.2-1.7-0.5-2.7-1.2 -1-0.5-2.2-0.7-3.2-1.2 -2-1.7-3.7-3.5-5.5-5.5 -0.5-0.5-1-1-1.5-1.2 -1.5-1.5-2-3.2-2.5-5 0-1-0.5-1.7-0.5-2.7 -0.5-2.5-0.5-4.7 0.3-7s1-4.7 1.8-7c0.8-2.5 1.5-5.2 3.3-7.7 1.8 0.8 3.5 0.3 5.5 0 0 0 0.3 0 0.3 0.3 0.3 0 0.5 0 0.5 0 0.8 1 2 1 3 1.5 0.3 0.3 0.3 0.3 0.5 0.3 1 1.3 2.5 1.3 3.8 1.3 0.8 0 1.8-0.5 2.5 0.3 0 0.3 0.5 0.3 1 0.3 2.5-0.2 5 0.8 7.5 1.8 0.8 0.3 1.8 0.8 2.5 1C497.7 138.1 497.7 138.4 497.7 138.6zM486.4 142.4c1.3 0 1.8-1.2 3-0.7 -1.5-1.2-2.2-1.2-3.2 0C486.2 142.1 486.2 142.4 486.4 142.4z"/><path d="M555.3 71.6c0.2 0.9-0.1 1.8-0.3 2.7 0 0.1 0 0.5-0.1 0.6 -0.5 0.9-0.5 1.9-0.7 2.8 -0.5 1.5-0.7 2.9-0.9 4.4 -0.1 0.6-0.3 1-0.5 1.5 -0.3 1.2-0.7 2.4-0.9 3.6 0 0.6-0.2 1.2-0.5 1.8v0.1c-0.5 1.9-0.9 3.9-1.3 5.8 -0.5 1.4-0.6 2.7-0.9 3.9 -0.3 1.2-0.6 2.5-0.7 3.8 -0.3 1.2-0.7 2.4-1 3.6 -0.6 1.8-0.7 3.6-1.3 5.4 -0.5 1.4-0.5 2.8-0.9 4.3 -0.5 1.4-0.6 2.9-0.9 4.4 -0.3 1.3-0.6 2.5-1.4 3.7 -0.3 0.8-0.5 1.7-0.7 2.4 -0.1 0.3 0 0.6-0.5 0.5 0 0.6-0.1 1-0.3 1.5 0 0.3 0.2 0.6 0.2 0.9 0 0.2 0 0.3-0.2 0.5 -0.5 0.9-0.5 2.1-0.7 3.3 -0.1 0.2-0.1 0.5-0.3 0.6 -0.5 1.2-0.6 2.4-0.7 3.6 -0.1 0.8-0.5 1.6-0.6 2.4 -0.2 0.5-0.3 0.9-0.3 1.5 0 0.8-0.2 1.5-0.5 2.3 -0.5 0.9-0.6 1.8-0.7 2.7 0 0.3 0 0.6-0.2 0.9 -0.7 1.4-1 2.7-1.5 4.2 0 0.5-0.1 0.9-0.5 1.2 -0.3 0.4-0.4 0.9-0.6 1.3 0 0.2 0 0.5-0.1 0.6 0 0.6-0.3 1.2-0.6 1.8 -0.6 0.8-1.2 1.5-1.8 2.1 -0.5 0.8-1.2 1.2-1.8 1.8 -0.5 0.5-1 0.8-1.7 1 -0.6 0.5-1.5 0.6-2.1 0.9s-1 0.3-1.6 0.3c-0.5 0-0.7 0.1-1.1 0.1 -0.3 0-0.6 0-0.9 0s-0.7 0-1-0.1c-0.6-0.2-1.2-0.5-1.7-0.7 -0.1-0.2-0.1-0.2-0.3-0.3 0.2-0.2 0.2-0.2 0.3-0.2 0-0.5-0.5-0.7-0.7-0.7 0-0.1-0.1-0.3-0.1-0.5 -0.2-0.3 0.1-0.4 0.1-0.6 0-0.7 0.2-1.5 0.3-2.2 0-0.5 0-0.7 0.2-1 0 0 0 0 0-0.2 0.3-1 0.3-2.1 0.8-3.1 0.2-0.5 0.2-0.9 0.3-1.2 0-0.1 0.2-0.1 0.2-0.1 0-0.2 0-0.3 0-0.3 -0.2-0.4 0-0.9 0.3-1.3s0.3-0.9 0.5-1.3c0.1-0.6 0.3-1.2 0.4-2 0.2-0.7 0.3-1.5 0.6-2.2 0-0.2 0-0.3 0-0.6 0.6-0.3 0.3-1.2 0.9-1.5 -0.3-0.7 0.3-1.4 0.3-2.1 0-0.1 0.1-0.3 0.3-0.4h0.1c-0.3 0-0.3-0.2-0.3-0.3 0-0.1 0.2-0.3 0.3-0.4 -0.1-0.6 0.5-1 0.3-1.7 0-0.1 0.1-0.1 0.1-0.1 0-0.3 0.2-0.3 0.2-0.6 0 0 0.1-0.1 0.1-0.3s0-0.2 0-0.3c0 0 0 0 0.2 0 0-0.3 0.1-0.6 0.1-0.9 0 0 0.2 0 0.2 0.2 0-0.2-0.2-0.3-0.2-0.5 0.2-0.2 0.3-0.3 0.5-0.5 0-1.2 0.6-2.1 0.8-3.3 0-0.1 0-0.3-0.1-0.5 -0.2-0.1-0.5-0.1-0.5-0.3 -0.2-0.1 0.1-0.1 0.1-0.3 0-0.5 0-0.9-0.1-1.3 0-0.2-0.2 0-0.2-0.2 0.5-0.7 0.2-1.6 0.5-2.4 0 0 0 0-0.2-0.2 0.2 0 0.2 0 0.3-0.2 0-0.1-0.2-0.3-0.3-0.4 0.2-0.2 0.3-0.3 0.5-0.6 -0.1-0.1-0.5-0.1-0.5-0.3 0.2-0.2 0.3 0.2 0.6-0.2 -0.2-0.1-0.5-0.3-0.3-0.6 -0.2-0.1-0.3-0.1-0.5-0.3 0.1-0.3 0.3 0 0.5 0 0-0.3 0-0.5 0-0.7 -0.5 0.3-0.9 0.3-1.2 0.8 0.1 0.2 0.3 0.2 0.3 0.3 -0.2 0.5-0.5 0.2-0.7 0.2 -0.1 0-0.3 0-0.3-0.3 -0.2 0-0.3-0.2-0.5-0.2 -0.3 0.2-0.1 0.3-0.1 0.5 -0.2-0.2-0.3-0.2-0.5-0.3 0-0.2 0-0.5-0.3-0.5 0-0.5 0.4-0.2 0.6-0.5 0-0.3 0.2-0.7 0.3-1.2 -0.3-0.1-0.3 0.2-0.6 0.2 -0.2-0.2 0.1-0.2 0.1-0.3 -0.3-0.2-0.4 0.1-0.6 0.1s-0.2-0.1-0.2-0.3c0.2 0 0.5 0 0.8 0 -0.1-0.3-0.1-0.5-0.1-0.6 -0.5 0-0.7-0.3-1-0.2 -0.3-0.2-0.2-0.3-0.2-0.5 -0.2 0-0.3 0.3-0.5 0 0.3-0.1 0.5-0.5 0.6-0.9 -0.3 0-0.6-0.3-0.6-0.5 -0.1-0.2-0.3 0-0.5-0.2 0.2-0.1 0.5-0.3 0.8-0.3 0.2-0.1 0.2-0.3 0.2-0.5 0.2 0.2 0.2 0.3 0.3 0.3 0-0.2 0.2-0.3 0.2-0.5 -0.2-0.2-0.3-0.2-0.6-0.2 -0.3 0.3-0.4 0.6-0.9 0.8 -0.2-0.1-0.2-0.3-0.2-0.5 0.3 0 0.5-0.1 0.8-0.3 -0.1-0.1-0.5-0.3-0.6-0.3 0.1-0.3 0.1-0.3 0.6-0.3 0-0.2 0-0.3 0-0.5 -0.3 0-0.5 0.3-0.7 0.3 -0.1-0.1 0-0.3 0-0.3 0-0.3-0.3-0.5-0.4-0.6 0.3 0 0.4 0 0.6-0.2 0.1-0.2 0-0.2 0-0.3 0.1-0.2 0.6 0 0.9-0.2 0.2-0.1 0.2-0.3 0.2-0.3 0.2-0.2 0.2 0 0.3 0 0.2-0.2-0.1-0.2 0-0.3 0-0.3 0.3-0.5 0-0.7 0 0 0 0.2-0.1 0.3 -0.2 0-0.3 0-0.6 0 0-0.3-0.1-0.6-0.5-0.9 -0.1 0-0.3 0.3-0.4 0.3 0.1 0.3 0.1 0.5-0.2 0.6 0.3 0.2 0.5 0 0.6 0 0.2 0.3 0.2 0.5 0.2 0.8 -0.2 0-0.2-0.3-0.3-0.3 -0.2 0.1 0.1 0.3 0 0.5 -0.3 0-0.3-0.3-0.6-0.2 -0.2-0.6-0.2-1 0.3-1.3 -0.3-0.3-0.5-0.7-0.6-1.2 0.5 0.5 0.6 0.5 0.9 0.5 0-0.2 0-0.5 0.1-0.5 0.2-0.2 0-0.5-0.1-0.5 -0.5 0-0.6-0.3-0.9-0.6 0-0.3 0.3-0.2 0.6-0.2 0-0.3 0.1-0.5 0.1-0.6 0-0.3-0.1-0.7 0-1 -0.1 0.1-0.1 0.1-0.3 0.3 -0.3-0.2-0.6-0.3-0.9-0.2 0 0-0.2 0.2-0.2 0.3 -0.2 0 0-0.1-0.2-0.3 -0.1 0-0.1 0.2-0.3 0.2 0-0.2 0.2-0.3 0.3-0.3 0-0.2-0.1-0.2-0.1-0.5 0 0 0.1 0.2 0.1 0s-0.3-0.3-0.3-0.5c-0.1-0.1-0.3 0-0.3-0.1 -0.2 0-0.2-0.2-0.3-0.2 0 0.2 0 0.3 0 0.5 -0.2 0-0.2 0.1-0.3 0.1 0-0.4-0.3-0.9-0.3-1.3 0.2-0.3-0.1-0.7-0.3-1.2 0-0.3 0-0.7 0.3-1 -0.3 0-0.4-0.2-0.7-0.2 -0.1-0.1 0-0.3 0-0.3 0.5 0 0.8 0 0.8 0.5h0.2c0.2-0.3-0.2-0.3-0.2-0.6 0-0.2 0.3 0.1 0.3-0.2 -0.2-0.1-0.3-0.3-0.3-0.5 0.2 0.2 0.2 0.3 0.5 0.2 0-0.3-0.3-0.6-0.6-0.9 0.3-0.1 0.1-0.6 0.6-0.7 0 0 0-0.1 0-0.3 -0.1-0.3-0.5-0.5-0.5-0.7s-0.1-0.6-0.1-0.9c-0.2-0.2-0.2-0.3-0.3-0.5 0.1 0 0.6 0.1 0.8-0.3 -0.3-0.2-0.5-0.3-0.7 0 -0.2-0.2-0.6-0.3-0.6-0.7 0 0 0.2-0.2 0.2-0.3 0 0-0.2-0.2-0.3-0.2 -0.2 0.2 0 0.3 0 0.3 -0.2 0-0.2-0.1-0.3-0.1 0 0.3 0.2 0.6 0.2 0.9 -0.2 0.2 0.2 0.5-0.2 0.6 -0.1 0-0.1-0.1-0.1-0.1 -0.6 0.1-0.9-0.2-1-1 0.1-0.2 0.3-0.2 0.3-0.2 0.1 0.2 0.1 0.2 0 0.3 0 0 0.3 0 0.3 0.3 0.2-0.2 0.3-0.2 0.3-0.3 0-0.1-0.3-0.1-0.3-0.3 0.5-0.3 0.5-0.6 0.3-1.1 -0.3 0-0.3 0.3-0.6 0.3 -0.2-0.1-0.3-0.3-0.6-0.1 0-0.3 0-0.6-0.3-0.9 -0.1 0 0-0.1-0.1-0.1 -0.5-1-0.9-2.2-1.4-3.3 0-0.1 0.2-0.1 0.2-0.3 0.2 0.1 0.5 0.1 0.5-0.1 -0.2-0.3-0.5 0-0.6 0 -0.3 0-0.4-0.3-0.4-0.5 0-0.6-0.5-1-0.6-1.5 -0.1-0.1-0.3-0.4 0-0.7 -0.3-0.1-0.5-0.3-0.6-0.6 -0.2-0.9-0.5-1.7-0.6-2.6l-0.2-0.1c0-0.1-0.2-0.3 0-0.6 0 0-0.2 0-0.2-0.1s0-0.3 0-0.6c-0.6-0.1-0.6-0.7-0.6-1.2 -0.5-0.5-0.3-1-0.3-1.6 0.1-0.1 0.3-0.3 0.3-0.5 -0.2-0.1-0.3-0.1-0.5-0.3 0-0.1 0.3 0 0.3-0.3 0-0.3-0.3-0.3-0.6-0.5 0 0.3 0.3 0.1 0.3 0.5 -0.1 0-0.3-0.2-0.5-0.2 -0.6-1.2-0.7-2.1-0.6-2.5 0-0.1 0.2 0 0.3 0 0-0.1-0.1-0.3-0.1-0.3 -0.2-0.1-0.3 0.1-0.5 0.3 -0.2-0.3 0-0.4 0-0.6 0-0.3-0.2-0.4-0.3-0.4 0-0.1 0.3 0 0.3-0.3 0.1-0.1 0.1-0.4 0-0.6 -0.2 0-0.2 0.3-0.3 0.3 -0.2 0-0.2-0.3-0.3-0.4 0.2-0.2 0.3-0.5 0.2-0.6 0-0.1 0-0.3 0.2-0.5 -0.2-0.1-0.2-0.3-0.5-0.4 0 0.1 0.1 0.3 0.1 0.3 -0.4-0.1-0.6-0.3-0.4-0.9 0-0.1-0.2-0.1-0.2-0.1 0-0.1 0.2-0.1 0.3-0.3 -0.3-0.3-0.3-0.3-0.6-0.6 0-0.3-0.3-0.6 0.1-0.9 -0.3-0.1-0.6-0.4-0.3-0.7 -0.5 0.1-0.5-0.2-0.5-0.5 0.3-0.1 0.5 0 0.8 0 0 0.1-0.1 0.3-0.1 0.3 0.1 0.2 0.1 0.5 0.5 0.5 0-0.5 0-0.9-0.3-1.2 0 0.2 0 0.3 0 0.5 -0.1-0.1-0.1-0.5-0.3-0.6 -0.1 0 0 0.3-0.3 0.3 -0.5-0.6-0.7-1.5-0.9-2.4 -0.2 0 0-0.2 0.1-0.3 0.2 0 0.3 0.1 0.5 0.1 0.1-0.1 0.1-0.1 0.3-0.3 0.3-0.6 0.9-0.7 1.3-1 0.5-0.1 0.8-0.3 1.1-0.6 0.1-0.3 0.4-0.5 0.6-0.5 0.8-0.3 1.3-0.7 2.1-0.7 0.5 0 0.8-0.3 1.2-0.3 0.9-0.1 2-0.1 2.8 0.1 0.3 0 0.8 0 1 0.2 0.9 0.3 1.4 1 1.8 1.8 0.6 0.9 1 1.8 1.3 2.8 0.3 0.2 0.5 0.3 0.6 0.5 0.3 0.3 0.6 0.4 0.9 0.8 0.9 1.8 2 3.8 2.7 5.7 0.4 1.4 1.3 2.5 1.8 4 0 0.1 0.1 0.3 0.1 0.5 0.2 1.3 0.9 2.4 1.5 3.4 0.5 1.4 1 2.7 1.5 4 0.2 0.8 0.5 1.4 0.8 1.9 0.5 1.1 0.9 2 0.9 3 0 0.3 0.1 0.6 0.3 0.8 0.8 1.6 1.3 3.3 1.8 5 0.2 0.5 0.5 0.9 0.6 1.2 0.5 0.4 0.9 0.1 1.1 0.6 0.4-0.6 0.1-0.7-0.2-1 0.5-2.3 1-4.4 1.8-6.5 0.8-1.8 1.2-3.6 1.8-5.2 0.6-1.8 1.4-3.6 2.1-5.4 0 0 0 0-0.2 0 0.2 0 0.2-0.1 0.2-0.1 0.1-0.2 0.1-0.2 0.1-0.3s0-0.4 0-0.6c0.3-0.6 0.3-1.2 0.5-1.6 0.1-0.1 0.1-0.3 0.5-0.4 -0.3-0.1-0.3-0.3-0.2-0.5 0.2-0.1 0.2 0 0.3 0 0-0.3-0.1-0.3-0.1-0.4s0-0.3 0-0.5c0.1-0.1 0.3 0.1 0.4-0.1 0-0.1-0.1-0.1-0.3-0.3V78.5c0.5-0.4 0.5-1.2 0.6-1.8 0.1-0.3 0.3-0.4 0.4-0.4 0-0.2-0.1-0.3-0.1-0.5 0.5-0.6 0.3-1.4 0.6-2.1 0.2-0.4 0.3-0.9 0.3-1.3 0.2-0.1 0.2-0.3 0.2-0.5 0.2-0.3 0.3-0.4 0.2-0.7 0-0.3 0.1-0.6 0.3-0.7 0-0.6 0.1-1 0.5-1.3 0-0.7 0.4-1.4 0.6-1.6 0.5-1.1 0.8-1.8 1.5-2.2 0-0.1 0.1-0.3 0.1-0.5 1.7 0 3.2 0.1 4.5 0.9 0.9 0.3 1.8 0.6 2.7 1.1 0.2 0 0.2 0.1 0.2 0.3s0 0.3 0.1 0.3c0.2 0.2 0.3 0.2 0.3 0.2 0.6 0.4 0.8 1 1 1.6 0 0 0.2 0.1 0.2 0.3 0 0.8 0.2 1.5-0.2 2.1V71.6zM506.6 69.8c-0.1-0.2-0.3-0.2-0.3 0 -0.1 0.1-0.1 0.3 0 0.4C506.6 70.1 506.6 70 506.6 69.8zM508.4 72.4c0-0.1-0.2-0.3-0.3-0.3 -0.1 0.2-0.3 0.3-0.4 0.5 -0.2 0-0.2 0.1-0.2 0.3 0.3-0.1 0.5 0.1 0.6 0.1 0.2-0.1-0.1-0.3 0-0.3C508.1 72.4 508.4 72.5 508.4 72.4zM510.2 78.8v-0.1c-0.3 0.1-0.5 0.3-0.6 0.3 -0.1 0.3 0 0.5 0.3 0.6C510 79.3 510 79 510.2 78.8zM511.2 83.2c-0.2 0-0.3 0.1-0.5 0.3 0 0.1 0 0.4 0.3 0.6 0-0.1 0-0.4 0-0.6C511.1 83.5 511.2 83.3 511.2 83.2zM512.4 88.1c-0.2 0-0.3-0.1-0.5-0.3 -0.2 0.1-0.2 0.3-0.3 0.5 0.3 0.1 0.4 0.4 0.6 0.9C512.3 88.7 512.3 88.4 512.4 88.1zM513 90.1c-0.2-0.1-0.2-0.3-0.3-0.6 0 0.1-0.2 0.3-0.3 0.5C512.7 89.9 512.9 90.1 513 90.1zM513.5 87.8c-0.2-0.1-0.2-0.3-0.5-0.3 0 0.3-0.2 0.4-0.2 0.8 0.2 0 0.5 0 0.6 0 0-0.3-0.3-0.2-0.3-0.3C513.3 87.8 513.5 88 513.5 87.8zM514.5 90.5c-0.2-0.3-0.3-0.1-0.6-0.1 0.3 0.1 0.3 0.5 0.3 0.6C514.4 90.8 514.5 90.7 514.5 90.5zM515.4 92.5c-0.2 0.1-0.3 0.1-0.5 0.3 -0.2 0 0-0.3-0.3-0.3 -0.2 0.3 0 0.4 0.1 0.4C515.1 92.9 515.3 92.8 515.4 92.5zM515.9 90.8c-0.3 0-0.6 0-1 0.1 0.2 0.1 0.3 0.3 0.5 0.3s0.2-0.1 0.3-0.1c0.2 0 0.2 0.1 0.3 0C515.9 91.1 515.9 91 515.9 90.8zM517.2 101.3c0.1 0.3 0 0.6-0.2 0.8 -0.3 0-0.5-0.3-0.5-0.6 0.2 0.1 0.3 0.1 0.3-0.2C517.1 101.2 517.2 101.2 517.2 101.3zM517.4 99.7c0.2 0 0.3 0.3 0.6 0.3 -0.2 0.1-0.3 0.3-0.5 0.1C517.4 100.1 517.2 100 517.4 99.7zM517.5 102.8c-0.2-0.3-0.2-0.5 0-0.6 0.3-0.2 0.5 0 0.8 0.3C518 102.7 517.7 102.5 517.5 102.8zM517.7 104.5c-0.3-0.2 0.3-0.5 0-0.7 0.2 0 0.2 0 0.3 0 -0.3-0.3-0.2-0.5 0-0.7 0.1 0 0.1 0.3 0.3 0.1 0 0.3 0 0.5-0.2 0.6 0.2 0 0.2 0.1 0.3 0.1 0 0.2-0.1 0.3-0.1 0.5C518 104.3 517.8 104.3 517.7 104.5zM517.7 104.6c0-0.1 0-0.1 0-0.1S517.7 104.5 517.7 104.6zM519 108.5c0.6 0.1 0.6 0.5 0.5 0.9 -0.2 0.2-0.3 0-0.5 0 0-0.1 0.1-0.1 0.1-0.3C519 109 519 108.8 519 108.5zM519.9 105.1c-0.3 0.3-0.7 0.2-0.7 0.6 0.2 0.3 0.5 0 0.6 0.3 0 0.3 0 0.6 0 0.9 0.1-0.1 0.3-0.5 0.5-0.6C520.4 105.8 519.9 105.7 519.9 105.1zM519.8 110.8c0 0 0-0.2 0.1-0.2 -0.3-0.2-0.4-0.2-0.6-0.3 0.2-0.3 0.3-0.3 0.5-0.3 0 0.4 0.6 0 0.8 0.4 -0.5 0-0.5 0.5-0.7 0.5C519.8 110.9 519.8 110.9 519.8 110.8zM520.7 111.8c0 0.1 0 0.3 0 0.3 -0.1 0-0.4 0-0.4 0.3 -0.2-0.3-0.6-0.5-0.6-0.9C520.1 111.7 520.5 111.4 520.7 111.8zM520.8 104c-0.2 0-0.3-0.3-0.5-0.2 0.2 0.3 0 0.6 0.3 0.8C520.8 104.3 520.8 104.2 520.8 104zM520.5 112.1c0 0 0 0 0.1 0C520.7 112.1 520.7 112.1 520.5 112.1zM521.4 108.8c0 0.2 0.2 0.3 0 0.5 0.2 0.1 0 0.4 0.3 0.4C521.7 109 521.7 109 521.4 108.8zM522.3 109.7c0.3 0 0.5 0.2 0.6 0.3 0.2-0.3 0.3-0.3 0.5-0.5 -0.2-0.2-0.3-0.3-0.5-0.3C522.8 109.6 522.5 109.4 522.3 109.7zM523.2 112c-0.3-0.1-0.1-0.4-0.3-0.6 -0.1 0.2-0.5 0.2-0.6 0.6C522.6 111.8 522.8 112.1 523.2 112zM523.1 118.1c-0.3-0.2-0.5 0-0.7 0 0 0.1 0.1 0.3 0.3 0.5C522.8 118.6 523.1 118.4 523.1 118.1zM523.2 115.9c0 0 0.3 0 0.3-0.2 0-0.1-0.2-0.3 0-0.5 0-0.1 0.3 0 0.3-0.1 -0.2-0.2-0.2-0.3-0.3-0.5 -0.3 0.5-0.6 0.5-0.9 0.8C522.6 115.7 522.9 115.7 523.2 115.9zM523.4 113.5c0-0.3-0.3-0.4-0.6-0.6C522.9 113 523.1 113.5 523.4 113.5zM523.8 119.6c-0.2-0.2-0.5-0.5-0.7-0.3 0.1 0.2 0.5 0.2 0.5 0.5 -0.3 0.2-0.5 0.2-0.7-0.3 0 0.5 0.3 0.5 0.4 0.6 0.3 0.2 0.5 0 0.6 0C524 119.8 524 119.8 523.8 119.6zM524.3 123.7c0.3 0.1 0.3 0.3 0.1 0.6 -0.3-0.2-0.6-0.3-0.7-0.7C523.8 123.7 524 123.8 524.3 123.7zM524.3 109.3l-0.2-0.2C524.1 109.3 524.1 109.3 524.3 109.3zM524.6 117.5c0.1 0 0.1 0.2 0.1 0.3 0.3 0.1 0.6 0.1 0.8 0 -0.3-0.3-0.6-0.6-1-0.7 -0.1 0.1-0.3 0.3-0.1 0.4C524.4 117.7 524.6 117.5 524.6 117.5zM525.2 121.4c0-0.2 0.2-0.2 0.2-0.3 -0.3 0.1-0.5-0.2-0.7-0.2 -0.2 0-0.2 0.2-0.2 0.2C524.7 121.1 524.9 121.4 525.2 121.4zM526.5 120.8c-0.3 0-0.4 0.2-0.6 0 -0.2-0.1-0.3-0.4-0.6-0.6 0 0.5-0.5 0-0.5 0.5 0.2 0.1 0.5 0.1 0.5 0.5 0.1 0 0.1-0.3 0.3-0.2 0 0.2-0.2 0.5 0.1 0.8 0.2 0 0.3 0 0.3-0.2 0-0.1-0.3-0.3-0.3-0.4C526.1 121.1 526.2 121.1 526.5 120.8zM525.6 123.2c-0.2-0.2-0.3-0.3-0.6-0.3 0.1 0.3 0.3 0.5 0.3 0.6 0.1 0 0.3 0.2 0.3 0C525.8 123.4 525.8 123.4 525.6 123.2zM526.4 122.2c-0.2-0.3-0.3 0-0.5 0 -0.3 0-0.5-0.2-0.6-0.2h-0.2c0.3 0.3 0.6 0.5 0.9 0.6C526.2 122.5 526.4 122.3 526.4 122.2zM525.9 158.5l-0.2-0.1c-0.1 0.1-0.3 0.1-0.4 0.1 0.1 0.2 0.3 0.5 0.8 0.5C526.1 158.8 525.9 158.6 525.9 158.5zM526.1 118.9c-0.2 0-0.3 0.3-0.6 0.3 0 0.1 0 0.1 0.2 0.3 0.1-0.2 0.3-0.2 0.5-0.3C526.1 119 526.1 119 526.1 118.9zM525.8 124.7c-0.1-0.3-0.1-0.5-0.1-0.7 0.1 0.1 0.3 0.3 0.3 0.5 0 0.4 0 0.4-0.3 0.8C525.5 124.9 525.6 124.9 525.8 124.7z"/><path d="M364.9 46.8c0.1 0 0.1-0.4 0.1-0.5C364.9 46.4 364.9 46.9 364.9 46.8z"/><polygon points="364 47.7 364 47.6 363.9 48 "/><path d="M363.1 47.7c0.1 0.7 0.3-0.1 0.5 0.1l0 0.2 0.1-0.6C363.5 47.5 363.3 47.9 363.1 47.7z"/><path d="M362.6 46.2c0 0.3-0.1 0.2 0.1 0.1 0 0 0 0 0-0.1C362.7 46.2 362.7 46.2 362.6 46.2z"/><path d="M362.7 46.2C362.8 46.2 362.6 46 362.7 46.2L362.7 46.2z"/><path d="M362.3 46.4l0.1-0.3c0-0.2-0.1-0.2-0.1-0.3C362.2 46 362.2 46.1 362.3 46.4z"/><path d="M362.2 46.9l0.1-0.1C362.2 46.7 362.2 46.7 362.2 46.9z"/><path d="M362.4 46.6l-0.1 0.2c0 0.1 0 0.3 0.1-0.1C362.3 46.9 362.3 46.7 362.4 46.6z"/><path d="M362.5 46.7c0.1 0.2 0.2 0.2 0.1 0.5C362.7 47.1 362.7 46.6 362.5 46.7z"/><path d="M363.1 48.5l0.1 0.2 0.1-0.2C363.2 48.6 363.1 48.2 363.1 48.5z"/><path d="M361.5 46.1c0 0.2 0.1 0.4 0.1 0.6l0.1-0.2C361.6 46.4 361.5 46.3 361.5 46.1z"/><path d="M361.6 46.7l-0.1 0.3C361.6 47 361.6 46.8 361.6 46.7z"/><polygon points="362.2 47.7 362.4 47.2 362.2 47.7 "/><polygon points="360.9 46.1 361 45.7 360.9 46.3 "/><path d="M360.6 46.2c0-0.3-0.1-0.5-0.1-0.7 -0.1 0.1-0.1 0.3-0.2 0.6C360.4 46 360.5 46 360.6 46.2z"/><path d="M360.2 46.4c0-0.1 0.1-0.2 0.1-0.3C360.3 46.2 360.2 46.3 360.2 46.4z"/><path d="M361.2 46.9c0-0.1-0.1-0.3-0.1-0.4l0.1 0.4L361.2 46.9z"/><path d="M361.2 46.9l0 0c-0.1 0-0.1 0-0.1 0C361.1 46.9 361.1 46.9 361.2 46.9z"/><path d="M361.2 46.9c0 0 0 0 0 0C361.2 46.9 361.2 46.9 361.2 46.9z"/><path d="M361.8 47.4c-0.1 0.2-0.2 0.5 0 0.9C361.9 47.9 361.8 47.7 361.8 47.4z"/><path d="M361.4 47.4l0.1 0.1c0-0.1-0.1-0.3 0-0.4L361.4 47.4z"/><polygon points="361.3 47.6 361.4 47.4 361.3 47.4 "/><path d="M360.5 46.8c0 0.2-0.1 0.2-0.2 0.3 0.1 0.1 0.2 0.1 0.3 0.1C360.6 47 360.6 46.8 360.5 46.8z"/><path d="M360.8 46.9l0 0C360.8 46.9 360.9 46.9 360.8 46.9z"/><path d="M359.6 47.2c0 0 0 0.1 0 0.1l0-0.1L359.6 47.2z"/><path d="M360.6 47.2c0.1 0.1 0.1 0 0.1-0.2 0 0-0.1 0.1-0.1 0.1C360.6 47.2 360.6 47.2 360.6 47.2z"/><path d="M360 46.7c0 0.1 0.1 0.2 0.1 0.2C360.1 46.8 360 46.6 360 46.7z"/><path d="M360.8 46.8l0 0C360.8 46.7 360.8 46.7 360.8 46.8z"/><path d="M360.8 46.8c0 0.1 0 0.2-0.1 0.3 0 0 0.1-0.1 0.1-0.2C360.8 46.9 360.8 46.8 360.8 46.8z"/><path d="M359.8 49.9c-0.1-0.4 0-0.8 0.2-0.4 0.1-0.3-0.2-1.6-0.4-2.3 0 0.2 0 0.3-0.1 0.6 0.1 0.2 0.4 0.5 0.3 0.8 -0.1 0.2-0.2-0.1-0.3-0.3 0.2 0.5-0.1 0.7 0.1 1.4l0.1-0.3C359.8 49.6 359.8 49.8 359.8 49.9z"/><path d="M359.9 47.2l0.1-0.1c-0.1-0.1-0.1-0.2-0.3-0.5 -0.1 0.2-0.1 0.4-0.1 0.5l0.3 0L359.9 47.2z"/><path d="M360.2 47.1c0 0.4-0.1 0.6 0 1.1 0.2-0.1 0.1-0.4 0.1-0.6 -0.3 0.1 0-0.2-0.2-0.5 0-0.1 0.1-0.1 0.1-0.1 -0.1 0-0.1-0.1-0.2-0.2l0 0 0 0 0 0c0 0.1 0 0.1 0 0.1 0 0 0 0 0 0 0 0.1 0 0.1 0 0.2 -0.1-0.1 0-0.1 0-0.2l0-0.1 0 0 -0.2 0.3C360 47.2 360.1 47.2 360.2 47.1z"/><path d="M361.8 49.1c0 0 0-0.1 0-0.1C361.7 49.1 361.7 49.1 361.8 49.1z"/><path d="M361.6 48.9c0-0.1 0-0.2 0.1-0.2 0.1 0.1 0 0.2 0 0.3 0-0.1 0.1-0.3 0-0.5l0 0.1c-0.1-0.1-0.3-0.7-0.3-0.7C361.5 48.2 361.5 48.5 361.6 48.9z"/><path d="M360.9 48.1l-0.2 0.2 0.2 0.4 0-0.2C361 48.6 360.9 48.3 360.9 48.1z"/><polygon points="359.5 47 359.5 46.5 359.5 47.2 "/><polygon points="359.2 47 359.2 46.7 359.1 46.9 "/><path d="M348.8 58.9l0.1 0.1C348.8 58.9 348.8 58.9 348.8 58.9z"/><path d="M349 58.6l-0.1-0.1C349 58.5 349 58.6 349 58.6z"/><path d="M352.1 49.5c-0.3-0.3-0.6-0.7-0.4-0.3l0.2 0.4C352 49.5 352.1 49.5 352.1 49.5z"/><path d="M349.7 54.5l0.1 0.1c-0.1-0.1-0.2-0.2-0.2-0.3C349.6 54.3 349.6 54.4 349.7 54.5z"/><path d="M350.9 55.8l-0.3-0.1C350.7 55.8 350.8 55.8 350.9 55.8z"/><path d="M347.9 61l0.3 0.3C348.3 61.1 348.1 61.1 347.9 61z"/><path d="M356.2 47.9c-0.1-0.1-0.2-0.2-0.3-0.2C356.1 48 356.3 48.3 356.2 47.9z"/><path d="M345.2 56c0 0.1 0.1 0.1 0.2 0.2C345.3 56.1 345.3 56 345.2 56z"/><path d="M355.7 47.8c0 0 0 0.1 0.1 0.1 0-0.1 0.1-0.2 0.2-0.2C355.8 47.6 355.7 47.5 355.7 47.8z"/><path d="M344.5 68.3c0 0 0 0-0.1 0C344.5 68.3 344.5 68.3 344.5 68.3z"/><path d="M339.7 69.9c0 0 0-0.1 0-0.1C339.6 69.7 339.6 69.8 339.7 69.9z"/><path d="M358 47.1C358.1 47.1 358 47.1 358 47.1L358 47.1z"/><path d="M358.7 48.7c0 0.1 0 0.1 0 0.2C358.7 48.8 358.7 48.8 358.7 48.7z"/><path d="M356 50.6l0 0C356.1 50.7 356.1 50.6 356 50.6z"/><path d="M358.1 47.3c0 0-0.1-0.1-0.1-0.1C358 47.2 358.1 47.2 358.1 47.3z"/><path d="M358.1 47.1c0 0 0 0 0.1 0C358.1 47 358.1 47 358.1 47.1z"/><path d="M357.9 47.2c0 0 0.1 0 0.1 0 0 0 0 0 0-0.1C358 47.1 358 47.1 357.9 47.2z"/><path d="M344.8 63.7c0 0 0 0 0 0C344.9 63.8 344.9 63.7 344.8 63.7z"/><path d="M353.2 54.2c0 0 0 0 0 0l0 0L353.2 54.2z"/><path d="M353.2 54.6c-0.2-0.5-0.2-0.5 0-0.4l-0.7-1L353.2 54.6z"/><path d="M348.3 59.7l0.4 0.1c0.4 0.5 0.2 0.5 0.7 0.7 -1.1-0.8 0.2-0.5-0.9-1.3l0.3 0.1c0 0 0 0.1 0 0.1 0.6 0.2-0.7-0.7-0.4-0.7 0.1 0 0.3 0.1 0.4 0.2l-0.2-0.3c0.1 0 0.2 0.1 0.2 0.2l0.1-0.3 0 0c-0.1-0.2-0.4-0.4-0.4-0.6 0.2 0.1 0.1 0.1 0.2 0.2l-0.2-0.3c0.3 0.2 0.5 0.5 0.4 0.5 1.1 0.7-0.2-0.3 0.6 0l0 0.2c0.7 0.4 0.5 0.2 1 0.4 -0.2-0.1-1.1-0.6-1.3-0.9 0.1 0 0.2 0 0-0.2 0.4 0.3 0.3 0.2 0.4 0.1l0.5 0.4c-0.1-0.2-0.3-0.4-0.5-0.6 0.1-0.1 0.5 0.3 0.8 0.5 0.2-0.1-0.7-0.4-0.6-0.7 0.3 0 0.2-0.2 0-0.6 0.2 0.1 0.3 0.3 0.4 0.4l-0.3-0.4c0 0 0.1 0.1 0.2 0.2 -0.1-0.2-0.5-0.4-0.5-0.7 -0.5-0.5 0.9 0.5 0.5-0.2 0.2 0.1 0.3 0.3 0.4 0.5 -0.2-0.5-0.1-0.4-0.5-1.1l0.4 0.2c-0.4-0.3-0.7-0.8-0.9-1.2 -0.2-0.1-0.4-0.3-0.4-0.3l-0.1-0.4c0.1 0.1 0.2 0.2 0.4 0.5 0 0 0-0.1-0.1-0.1 0.2 0.1 0.4 0.4 0.6 0.7 -0.1-0.1-0.2-0.2-0.3-0.2 0.2 0.3 0.5 0.7 0.7 0.9 0-0.1-0.1-0.1-0.1-0.2 0.1 0.1 0.1 0.2 0.2 0.2 0.1 0 0-0.1-0.1-0.2l0.5 0.5 -0.2-0.2 0.5 0.1c-0.3-0.7-0.9-1.6-0.8-2 0.3 0.5 0.5 0.7 0.9 1.2 -0.5-0.5 0 0.4-0.2 0.4 0.1 0 0.3 0.2 0.3 0.3l-0.2-0.6c0.3 0.4 0.3 0.3 0.5 0.4 -0.7-0.7-0.2-0.7-0.3-1 0.2 0.3 0.4 0.6 0.2 0.6 0.6 0.5-0.6-1.1 0-0.7 0 0-0.1 0 0 0.1 -0.1-0.3 0.2-0.2 0.3 0l0 0c0.3-0.1 0.6-0.4 0.1-1.1 0.1 0.1 0.5 0.9 0.6 1 0 0-0.3-0.7-0.6-1.3 -0.3-0.7-0.6-1.3-0.6-1.3 0.4 0.6 1.4 2 1.5 2.5 0.1 0.1 0.2 0.1 0.2-0.2 -0.1-0.1-0.6-0.8-0.6-0.9 0.6 0.6 0.3 0.3 0.8 0.8 -0.1-0.1-0.7-1.1-0.6-1.1 0.1 0.2 0.6 1 0.6 1.1l-0.4-1.1c0.1 0.2 0.5 0.8 0.7 1.1 -0.1-0.2 0.2-0.1 0.2-0.2l-0.2-0.2c0.3 0-0.6-1.5-0.3-1.6 0.1 0.2 0.6 1.3 0.8 1.4 -0.2-0.5-1.1-2.6-1-3.1l0.2 0.3 0-0.4c0.2 0.8 0.8 2.6 1 3.3 0.2 0.2 0.2 0.3 0.3 0.2 0.2 0.3 0.1 0.4 0.1 0.5l0.4 0c-0.3-0.6-0.1-0.7-0.3-1.2l0 0.8c-0.3-0.6-0.7-1.8-0.4-1.8 0.2 0.2 0.5 1.1 0.6 1.3 -0.1-0.2 0-0.5 0.1-0.4l0.1 0.4c0.2 0.2-0.2-0.9 0.2-0.4 0.1 0 0.5 0.7 0.3 0.4 -0.4-0.7-1.4-2.8-1.5-3.4 0 0 0.6 0.6 0.8 0.9 0.3 0.5 0.4 1.4 0.7 1.8 -0.1-0.2-0.1-0.4-0.1-0.5 0.1 0.1 0.2 0.5 0.3 0.4 -0.2-0.6 0.3 0-0.2-0.6 0-0.2 0.2 0.1 0.3 0 -0.2-0.4-0.4-1.4-0.3-1.7 0.1 0.2 0.2 0.4 0.2 0.5 0.3 0 0.5 0.2 0.7 0.1 0.1 0.1 0.2 0.3 0.3 0.6 0-0.1 0-0.4 0-0.4 0.3 0.5-0.1 0.1 0.2 0.8 -0.1-0.4 0-0.6 0-0.8 -0.2-0.6-0.3 0-0.3 0.2 -0.3-0.8-0.3-1.7-0.2-2.2 0.2-0.3 0.2 0.5 0.2 0.4 0.4 0-0.1-1.5 0.5-1 0.3 0.5 0.3 1 0.4 1.4 -0.1 0.2-0.3-0.3-0.5-0.2l0.2 0.2c0 0.2-0.1 0.4-0.2 0.2 0.2 0.4 0.7-0.1 1.1 0.3 0-0.2 0.1-0.4 0-0.6l-0.1 0.1c-0.2-0.4 0-0.6-0.1-0.8 0.1-0.3 0.1-0.8 0.4-0.6l0.2 0.6c0-0.2-0.2-0.3-0.2-0.1 0-0.3 0.4 0.8 0.4-0.1l-0.2-0.4c0.1-0.3 0.1-1 0.3-0.9 -0.2-0.6 0 0.1-0.3-0.6 0.3 0.8-0.5 0.1-0.1 0.9 -0.3-0.8-0.3-0.3-0.6-0.9 0 0.2 0.1 0.4 0 0.3 0 0.1 0 0.1 0 0.2l0 0 0 0c0 0 0 0 0 0 0.1 0.1 0.1 0.2 0.1 0.3 0 0.5-0.2 0.5-0.2 0.8 -0.1-0.1 0-0.2-0.1-0.4l0 0.4c-0.1-0.4-0.4-0.7-0.3-1l-0.2 0c-0.2-0.2-0.4-0.3-0.4-0.1 -0.1-0.1-0.1 0.5-0.1 0.2l-0.2 0.4 0-0.1c-0.3 0-0.4 0.9-0.9 0.2 -0.1 0.1-0.1 0.3-0.3 0.2l-0.2-0.4c-0.1 0.2-0.5-0.2-0.4 0.2 -0.5-0.9-0.7 0-1-0.1l0.2 0.5c-0.2 0-0.2 0.2-0.3 0.5l0.2 0.4c0 0.4-0.5-0.1-0.7 0 -0.1-0.2 0-0.2 0.1-0.1 -0.7-0.8-0.3 0.9-0.8 0.4 0 0.2-0.1 0.2-0.2 0.1 0 0 0 0 0 0 0 0 0 0 0 0 -0.1-0.1-0.1-0.1-0.2-0.2 0.1 0.1 0.1 0.1 0.2 0.2 0 0-0.1 0.1-0.1 0.3l-0.3-0.4c0 0 0 0 0 0 -0.2-0.1 0.1 0.2 0.3 0.5 0 0.1 0 0.2 0.1 0.3 -0.4-0.6 0 0.3-0.5-0.3 0.2 0.4-0.2 0.5 0.2 1.2 -0.1-0.1-0.1-0.1-0.1-0.2 -0.1 0-0.3-0.1-0.2 0.2l-0.4-0.5 0.3 0.8c-0.3-0.2-0.5-0.4-0.6-0.9 0.2 0.8 0 0.4 0.2 1.1l-0.2-0.3c-0.1 0.1 0.1 0.6-0.1 0.3 -0.6-0.5-0.8 0.5-1.6 0.2 0.8 0.8-0.5-0.3 0 0.4 -0.2-0.2-0.4-0.3-0.4-0.5 0 0.4-0.6-0.1-0.2 0.6 -0.2-0.2-0.2-0.3-0.4-0.4 0 0.1 0.1 0.2 0 0.1 -0.1-0.1-0.1-0.2-0.2-0.3 -0.2 0.2 0.4 0.9 0.9 1.5 -0.3-0.2-0.4-0.1-0.1 0.3 -0.2-0.2-0.4-0.3-0.4-0.5 -0.1 0-0.7 0.1-0.2 0.6 -0.1-0.1-0.1 0.1-0.1 0.1 -0.2 0.1-0.2 0.1-0.3 0.3l0.1 0c0.5 0.6 0 0.2 0 0.4l-0.1-0.1c-0.6-0.1 0.1 0.3-0.6 0.1l0.4 0.3c0.7 0.7-0.7-0.2-0.5 0.2l0.3 0.1c0.2 0.3-1.3-0.7-1.4-0.7 -0.1 0-0.1-0.1-0.1-0.2 -0.7-0.2 0.4 0.4 0.4 0.7 -0.3-0.2-0.6-0.6-0.8-0.5 -0.3-0.1 0.6 1-0.1 0.8 0.2 0.1 0.5 0.3 0.6 0.5 0 0.2-1-0.3-0.5 0.3 -0.1 0-0.1-0.1-0.2-0.1 0.1 0.2 0 0.5 0.4 0.8 -1.4-0.9 0.2 1.1-1 0.2l-0.1 0.3 -0.1-0.1c-0.2 0.1 0 0.4 0.3 0.7 -0.1 0-0.2-0.1-0.3-0.2 -0.4 0.1-0.4 0.2 0.1 0.8l-0.4-0.2c0.2 0.2-0.9 0-0.6 0.6 0 0-0.1-0.1-0.2-0.1 0.3 0.6-1.7 0.1-0.1 1.1l0.3 0.4c0.3-0.2 0.7 0.4 1 0.4 0 0.2-0.6 0-0.6-0.1l0.1 0c-0.8-0.5-0.5 0.2-1-0.1 -0.2 0.6-1 0.9-1.2 1.4l0.7 0.2 -0.1 0.2c-0.2 0-0.6-0.2-0.5-0.3 -0.4-0.1 0.2 0.4 0.4 0.4 -0.4 0.1-0.7-0.4-0.8-0.4l0 0.1 0.1 0c0.2 0.2 0.5 0.3 0.4 0.5 -0.2 0-0.4-0.1-0.5-0.1 0 0-0.1 0 0 0.1l-0.2 0.2 0.6 0.1c0.2 0.2-0.1 0.2 0.5 0.3 -1-0.2-0.7 0.8-1 0.7 0.3 0.3 0.3 0.4 0.2 0.6 0.1 0 0.8 0.2 0.6 0.3 -1.3-0.5-0.7 0.1-1.6-0.1 0.6 0.1 0 0.5 0.9 0.6 -0.1 0.1-0.5-0.1-0.8-0.1 0.4 0.5-0.5 0.6-0.5 1.1 0.2 0.1 0.4 0.1 0.7 0.2l-0.9 0c0.1 0.1 1 0.3 0.3 0.3 0.1 0 0.4 0 0.4 0.1 -1 0.6 0.3 1.7-1.4 2.2 0.4-0.1 0.4 0 0.4 0.1 0.1 0 0.4 0.1 0.7 0.1l-0.7 0.2c0.6 0.2 0 0.4 0.6 0.5l-0.1-0.1c0.7 0.2 1.7 0 2.6 0.2 -0.8-0.3 1.3-0.2 0.1-0.6 0.2 0 0.3 0.1 0.5 0.1 -0.4-0.1-0.5-0.2-0.3-0.3l0.1 0c0-0.4 0.4-0.5 0.8-0.8l-0.5-0.1c0.1-0.1 0.2-0.1 0.4-0.1 -0.7-0.3-0.1 0.2-0.8 0 1 0.1 0.2-0.6 1.3-0.4 0-0.1-0.5-0.1-0.5-0.2l0.3 0 -0.4-0.1c0.1-0.1 0.5 0 0.7 0 0 0 0.1 0.1 0.1 0.1 0.4 0 0-0.4 0.1-0.4l-0.2 0.1c-0.2-0.4 0.3-0.8-0.1-1.3l-0.2 0c-0.3-0.4 0.3-0.1 0.2-0.5l0 0c-0.2-0.1-0.3-0.2-0.2-0.3 0.2 0.2 0.5 0 0.8 0.2 -0.3-0.4-0.3-0.3-1-0.7l0.4 0.1c-0.3-0.2-0.5-0.2-0.5-0.4 0.3 0.2 0.6 0.1 0.9 0.4 0.9 0-0.6-0.7 0.6-0.5 -0.9-0.5-0.6 0.1-0.8-0.1 -0.3-0.1-0.7-0.4-0.5-0.5 0.1-0.1 1.3 0.3 1.4 0.1 0 0 0.1 0.1 0 0.1 0.3 0-0.3-0.3 0.2-0.3 -0.5-0.3 0.1-0.1-0.6-0.5l0.1 0.3c-0.1-0.2-0.9-0.7-0.4-0.7 0.1 0.1 0.3 0.2 0.4 0.3 0.2 0-0.1-0.2 0.2-0.1 0.7 0.3 0 0.3 0.5 0.7 0.3 0.1-0.4-0.5 0.3-0.1 -1-0.5 0.2-0.2-0.5-0.7l0.4 0.2c-0.1-0.1-0.2-0.2-0.2-0.2l0.5 0.3c-0.4-0.3 0.5-0.1 0.3-0.3 -0.1 0.3-0.5-0.2-0.9-0.2 -0.4-0.6 1.2 0.3 1.2-0.1 0 0.1-0.3 0.1-0.5-0.1 0.1 0 0.3 0 0.6 0 0-0.3-0.5-0.2-0.7-0.4 0.6 0.2-0.2-0.2-0.3-0.4l0.4 0.2c0.4-0.1-0.9-0.5-0.4-0.6l0.5 0.4 -0.1-0.2 0.5 0.3c-0.3-0.3-0.2-0.3 0-0.4 -0.3-0.1-0.8-0.4-0.7-0.6 0.3 0.1 0.4 0.3 0.4 0.1 0.2 0.2 0.6 0.4 0.1 0.3 0.1 0.1 0.3 0.2 0.4 0.3 0.3 0.1 0.2-0.2 0.2-0.2 0 0-0.1 0-0.1 0l-0.5-0.6c0.2 0.1 0.3 0.2 0.4 0.2 0-0.1-0.2-0.2-0.2-0.3 0.3 0.2 0.7 0.4 0.8 0.6l-0.3-0.4c0.2 0.1 0.5 0.1 0.6 0.2 0.3 0-0.5-0.7-0.1-0.7 -0.1 0-0.1-0.1-0.1-0.2 0.2-0.1 0.7 0 0.3-0.4l0.7 0.3c0-0.2-0.8-0.3-0.9-0.7 -0.1-0.3 0.5 0.3 0.7 0.3 -0.2-0.3-0.7-0.8-0.2-0.6C348.4 59.7 348.3 59.7 348.3 59.7zM349.2 58c0.1 0.1 0.2 0.3 0 0.2C348.8 57.8 349.1 57.9 349.2 58zM350.5 55c0.1 0.1 0 0.1-0.2 0C350.4 54.9 350.4 54.9 350.5 55zM357.4 47.6c0 0 0 0 0 0C357.2 47.5 357.3 47.6 357.4 47.6zM357.7 47.8c0-0.1 0-0.1 0-0.2 0 0.1 0 0.1-0.1 0.1C357.6 47.8 357.6 47.9 357.7 47.8zM341.6 63l0.1 0C341.8 63.1 341.7 63.1 341.6 63z"/><path d="M350.7 55.7c-0.1-0.1-0.1-0.1-0.2-0.2C350.6 55.6 350.6 55.6 350.7 55.7z"/><polygon points="347.9 60.9 347.8 60.9 347.9 61 "/><path d="M356 52.6c-0.1-0.1-0.1-0.1-0.2-0.2C355.9 52.5 356 52.6 356 52.6z"/><path d="M358.6 46.8l-0.1 0.2c0.1 0 0.1 0.1 0.2 0.1C358.6 46.9 358.6 46.8 358.6 46.8z"/><path d="M360.3 49.5c0-0.1 0 0 0-0.1l0-0.2C360.2 49.2 360.2 49.4 360.3 49.5z"/><path d="M359 48.3c0.1 0.4 0.1 0.2 0.2 0.1 0 0 0 0 0 0C359.2 47.9 359.1 48.1 359 48.3z"/><path d="M359.3 48.4c0 0 0.1 0 0.1 0C359.3 48.2 359.3 48.4 359.3 48.4z"/><path d="M357.9 47.5c0.1 0.1-0.1-0.5 0-0.4C357.8 46.6 357.7 47.8 357.9 47.5z"/><polygon points="359.4 49.6 359.2 49.1 359.3 49.5 "/><path d="M358.6 49.4l0.2 0.1c0-0.1 0-0.1 0-0.2C358.7 49.3 358.6 49.2 358.6 49.4z"/><path d="M358.8 49.3c0 0 0.1 0 0.1-0.1C358.8 49.2 358.8 49.2 358.8 49.3z"/><polygon points="359.2 49.8 359.1 49.7 359 49.7 "/><path d="M357.1 49.7l-0.1 0.2c0 0.2 0.1 0.3 0.1 0.2C357.1 49.9 357.2 49.8 357.1 49.7z"/><path d="M357.9 50.9c-0.1-0.1-0.1-0.2-0.2-0.3l0.2 0.6L357.9 50.9z"/><path d="M357.5 51.1c0 0.2-0.1 0.5 0.1 0.4C357.6 51.4 357.7 51.2 357.5 51.1z"/><polygon points="355.2 51.1 355.2 51.1 354.8 50.2 "/><path d="M354.5 54.2c0.3 0.1-0.3-0.6 0-0.4 -0.1-0.2-0.2-0.2-0.3-0.4C354.3 53.7 354.2 53.6 354.5 54.2z"/><path d="M354.3 53.4c0 0 0-0.1 0-0.2C354.2 53.3 354.2 53.4 354.3 53.4z"/><polygon points="339 70.2 338.8 70.3 339.2 70.3 "/><path d="M339.8 70.6l-0.6-0.1 0.6 0.2C339.7 70.7 339.6 70.6 339.8 70.6z"/><path d="M350.4 58.6l-0.1-0.1c-0.1-0.1-0.2-0.1-0.2-0.1L350.4 58.6z"/><polygon points="349.2 59.4 349.2 59.3 348.7 59 "/><path d="M349.1 60.7c0 0 0-0.1 0-0.2C349.2 60.7 348.5 60.3 349.1 60.7z"/><path d="M416.2 9.4c0 0 0.1-0.4 0.1-0.4C416.2 9.1 416.2 9.5 416.2 9.4z"/><polygon points="415.1 10.2 415.1 10 414.9 10.4 "/><path d="M414.2 10c0 0.7 0.3-0.1 0.4 0.2l0 0.2 0.2-0.6C414.6 9.9 414.3 10.3 414.2 10z"/><path d="M414 8.4c0 0.3-0.1 0.2 0.1 0.1 0 0 0 0 0-0.1C414.1 8.5 414.1 8.5 414 8.4z"/><path d="M414.1 8.5C414.2 8.5 414.1 8.2 414.1 8.5L414.1 8.5z"/><path d="M413.7 8.6l0.2-0.2c0-0.2-0.1-0.2-0.1-0.3C413.6 8.1 413.6 8.3 413.7 8.6z"/><path d="M413.5 9.1l0.1-0.1C413.5 8.9 413.5 8.9 413.5 9.1z"/><path d="M413.7 8.8l-0.2 0.2c0 0.1 0 0.3 0.1-0.1C413.6 9.1 413.6 8.9 413.7 8.8z"/><path d="M413.8 8.9c0 0.2 0.1 0.3 0 0.5C414 9.3 414 8.8 413.8 8.9z"/><path d="M414.1 10.8l0.1 0.2 0.1-0.2C414.2 10.9 414.1 10.5 414.1 10.8z"/><path d="M412.9 8.1c0 0.2 0 0.4 0 0.6l0.1-0.2C413 8.4 412.9 8.3 412.9 8.1z"/><path d="M412.9 8.7l-0.2 0.2C412.9 9 412.9 8.9 412.9 8.7z"/><polygon points="413.3 9.9 413.6 9.3 413.3 9.9 "/><polygon points="412.4 8 412.5 7.7 412.3 8.2 "/><path d="M412 8.1c0.1-0.3 0-0.5 0-0.7 -0.1 0-0.2 0.3-0.3 0.5C411.9 7.8 411.9 7.8 412 8.1z"/><path d="M411.6 8.2c0-0.1 0.1-0.2 0.1-0.3C411.7 8 411.7 8.1 411.6 8.2z"/><path d="M412.5 8.9c0-0.1 0-0.3-0.1-0.4l0 0.4L412.5 8.9z"/><path d="M412.5 8.9l0 0c-0.1 0-0.1 0-0.1 0C412.4 8.8 412.4 8.8 412.5 8.9z"/><path d="M412.5 8.9c0 0 0 0 0 0C412.5 8.9 412.5 8.9 412.5 8.9z"/><path d="M413.1 9.4c-0.1 0.2-0.3 0.5-0.2 0.8C413 10 412.9 9.8 413.1 9.4z"/><path d="M412.6 9.4l0.1 0.1c0-0.1 0-0.3 0-0.4L412.6 9.4z"/><polygon points="412.5 9.5 412.6 9.4 412.5 9.4 "/><path d="M411.9 8.6c-0.1 0.2-0.1 0.2-0.2 0.2 0.1 0.1 0.2 0.1 0.2 0.1C411.9 8.9 411.9 8.6 411.9 8.6z"/><path d="M412.2 8.8l0 0C412.1 8.8 412.2 8.8 412.2 8.8z"/><path d="M410.9 8.8c0 0 0 0.1 0 0.1l0-0.1L410.9 8.8z"/><path d="M411.9 9.1c0.1 0.1 0.1 0 0.1-0.1 0 0-0.1 0.1-0.2 0.1C411.9 9.1 411.9 9.1 411.9 9.1z"/><path d="M411.4 8.4c0 0.1 0.1 0.2 0.1 0.2C411.5 8.5 411.4 8.3 411.4 8.4z"/><path d="M412.1 8.7l0 0C412.1 8.6 412.1 8.6 412.1 8.7z"/><path d="M412.1 8.7c0 0.1-0.1 0.2-0.1 0.3 0 0 0.1-0.1 0.1-0.1C412.1 8.8 412.1 8.7 412.1 8.7z"/><path d="M410.6 11.6c0-0.4 0.2-0.8 0.3-0.3 0.1-0.3 0.1-1.6 0-2.3 0 0.2 0 0.3-0.2 0.6 0 0.2 0.3 0.5 0.2 0.9 -0.2 0.2-0.1-0.1-0.2-0.4 0.1 0.5-0.2 0.7-0.2 1.4l0.2-0.2C410.6 11.3 410.6 11.5 410.6 11.6z"/><path d="M411.2 9l0.1 0c-0.1-0.1-0.1-0.2-0.2-0.5 -0.1 0.2-0.1 0.3-0.1 0.5l0.3 0.1L411.2 9z"/><path d="M411.5 8.9c-0.1 0.4-0.2 0.6-0.2 1.1 0.2 0 0.1-0.4 0.2-0.5 -0.3 0.1 0.1-0.2-0.1-0.5 0.1-0.1 0.1-0.1 0.2-0.1 0-0.1-0.1-0.1-0.1-0.2l0 0 0 0 0 0c0 0.1 0 0.1 0 0.1 0 0 0 0 0 0 0 0.1 0 0.1 0 0.2 -0.1-0.1 0-0.1 0-0.2l0-0.1 0 0 -0.3 0.2C411.3 9 411.3 9 411.5 8.9z"/><path d="M412.6 11.2c0 0 0-0.1 0-0.1C412.6 11.1 412.6 11.2 412.6 11.2z"/><path d="M412.6 10.9c0-0.1 0.1-0.2 0.1-0.2 0 0.1 0 0.2 0 0.3 0-0.1 0.2-0.3 0.1-0.5l0 0.1c-0.1-0.2-0.2-0.7-0.1-0.8C412.5 10.2 412.5 10.5 412.6 10.9z"/><path d="M412 10l-0.2 0.2 0.1 0.4 0-0.2C412 10.5 412 10.2 412 10z"/><polygon points="410.9 8.6 410.9 8.2 410.7 8.8 "/><polygon points="410.5 8.7 410.6 8.3 410.5 8.5 "/><path d="M398.1 18.4l0 0.1C398.1 18.4 398.1 18.4 398.1 18.4z"/><path d="M398.4 18.1l-0.1-0.2C398.3 18.1 398.4 18.1 398.4 18.1z"/><path d="M403.1 9.8c-0.2-0.3-0.5-0.8-0.4-0.4l0.2 0.4C403 9.7 403 9.7 403.1 9.8z"/><path d="M399.8 14.2l0.1 0.1c-0.1-0.1-0.1-0.3-0.2-0.4C399.7 14 399.8 14.1 399.8 14.2z"/><path d="M400.7 15.8l-0.2-0.2C400.5 15.7 400.6 15.7 400.7 15.8z"/><path d="M396.9 20.2l0.3 0.3C397.2 20.5 397 20.4 396.9 20.2z"/><path d="M407.4 9c-0.1-0.2-0.2-0.2-0.2-0.2C407.3 9 407.4 9.3 407.4 9z"/><path d="M395.1 14.8c0 0.1 0.1 0.2 0.1 0.2C395.2 15 395.2 14.9 395.1 14.8z"/><path d="M406.9 8.8c0 0 0 0.1 0.1 0.1 0.1-0.1 0.1-0.1 0.2-0.1C407.1 8.6 407 8.5 406.9 8.8z"/><path d="M392.2 26.8c0 0 0 0-0.1 0C392.2 26.8 392.2 26.8 392.2 26.8z"/><path d="M387.1 27.5c0 0 0-0.1 0-0.1C387.1 27.4 387.1 27.4 387.1 27.5z"/><path d="M409.3 8.5C409.4 8.5 409.3 8.4 409.3 8.5L409.3 8.5z"/><path d="M409.7 10.2c0 0 0 0.1 0 0.2C409.7 10.3 409.7 10.2 409.7 10.2z"/><path d="M406.7 11.5l0 0C406.8 11.6 406.8 11.6 406.7 11.5z"/><path d="M409.4 8.7c0-0.1-0.1-0.1-0.1-0.1C409.3 8.6 409.4 8.6 409.4 8.7z"/><path d="M409.4 8.5c0 0 0 0 0.1 0C409.5 8.4 409.5 8.4 409.4 8.5z"/><path d="M409.2 8.5c0 0 0.1 0 0.1 0 0 0 0-0.1 0-0.1C409.3 8.5 409.3 8.5 409.2 8.5z"/><path d="M393.3 22.3c0 0 0 0 0 0C393.4 22.5 393.4 22.4 393.3 22.3z"/><path d="M403.3 14.6c0 0 0 0 0 0l0 0L403.3 14.6z"/><path d="M403.2 14.9c-0.1-0.5-0.1-0.5 0-0.4l-0.5-1.1L403.2 14.9z"/><path d="M397.5 19.1l0.4 0.2c0.3 0.6 0.1 0.5 0.6 0.8 -0.9-1 0.2-0.4-0.7-1.4l0.3 0.1c0 0 0 0.1 0 0.1 0.6 0.4-0.6-0.8-0.3-0.8 0.1 0 0.3 0.1 0.4 0.3l-0.1-0.4c0.1 0 0.2 0.2 0.1 0.2l0.1-0.3 0 0c-0.1-0.2-0.3-0.5-0.3-0.6 0.2 0.1 0.1 0.1 0.2 0.2l-0.1-0.3c0.3 0.2 0.4 0.6 0.3 0.6 1 0.9-0.1-0.3 0.6 0.1l0 0.2c0.6 0.5 0.5 0.3 0.9 0.5 -0.2-0.2-1-0.7-1.1-1.1 0.1 0.1 0.2 0.1 0.1-0.2 0.3 0.4 0.3 0.2 0.4 0.1l0.4 0.5c0-0.2-0.2-0.5-0.4-0.7 0.1 0 0.5 0.3 0.7 0.7 0.2 0-0.6-0.5-0.5-0.8 0.3 0.1 0.2-0.2 0.1-0.6 0.2 0.1 0.2 0.3 0.4 0.5l-0.2-0.5c0 0 0.1 0.1 0.2 0.2 0-0.2-0.4-0.5-0.4-0.7 -0.4-0.6 0.8 0.7 0.5-0.1 0.1 0.1 0.2 0.3 0.4 0.5 -0.1-0.6-0.1-0.4-0.3-1.1l0.4 0.3c-0.4-0.3-0.5-0.9-0.7-1.4 -0.2-0.2-0.3-0.3-0.4-0.4l0-0.4c0.1 0.1 0.2 0.3 0.3 0.5 0-0.1 0-0.1 0-0.2 0.2 0.2 0.3 0.5 0.5 0.8 -0.1-0.1-0.2-0.2-0.3-0.3 0.2 0.4 0.3 0.8 0.5 1.1 0-0.1 0-0.1 0-0.2 0 0.1 0.1 0.2 0.1 0.2 0 0.1 0-0.1-0.1-0.2l0.4 0.6 -0.1-0.2 0.5 0.2c-0.2-0.7-0.6-1.7-0.4-2.1 0.2 0.5 0.4 0.8 0.7 1.3 -0.4-0.5-0.1 0.4-0.3 0.3 0.1 0 0.2 0.3 0.3 0.4l0-0.7c0.2 0.4 0.2 0.3 0.4 0.5 -0.5-0.9-0.1-0.7-0.2-1 0.2 0.3 0.3 0.6 0.1 0.6 0.5 0.6-0.4-1.1 0.1-0.6 0 0-0.1 0 0 0.1 -0.1-0.3 0.2-0.2 0.3 0.1l0 0c0.3 0 0.7-0.3 0.3-1.1 0 0.1 0.4 1 0.4 1.1 0 0-0.2-0.7-0.4-1.4 -0.2-0.7-0.3-1.4-0.3-1.4 0.2 0.7 1 2.2 1 2.7 0.1 0.1 0.2 0.2 0.2-0.1 -0.1-0.1-0.5-0.9-0.5-1 0.4 0.7 0.3 0.4 0.7 0.9 -0.1-0.1-0.5-1.2-0.4-1.2 0 0.2 0.4 1.1 0.4 1.2l-0.2-1.1c0 0.2 0.3 0.9 0.5 1.2 -0.1-0.2 0.2 0 0.2-0.2l-0.2-0.2c0.3 0.1-0.3-1.6 0-1.6 0 0.2 0.4 1.4 0.5 1.5 -0.1-0.6-0.6-2.7-0.4-3.2l0.1 0.3 0.1-0.4c0.1 0.9 0.3 2.7 0.4 3.4 0.2 0.2 0.1 0.4 0.3 0.3 0.1 0.3 0.1 0.5 0 0.5l0.4 0.1c-0.2-0.6 0-0.7-0.1-1.2l-0.1 0.8c-0.2-0.6-0.3-1.9-0.1-1.8 0.1 0.2 0.3 1.2 0.3 1.4 0-0.2 0.1-0.5 0.2-0.3l0 0.4c0.2 0.2 0-0.9 0.3-0.3 0.1 0 0.3 0.8 0.3 0.4 -0.3-0.7-0.8-3-0.9-3.6 0 0 0.5 0.7 0.6 1 0.2 0.6 0.2 1.4 0.3 1.9 0-0.2 0-0.4 0-0.5 0.1 0.1 0.1 0.6 0.2 0.5 -0.1-0.7 0.3 0-0.1-0.6 0.1-0.2 0.2 0.1 0.3 0.1 -0.1-0.4-0.1-1.5 0-1.7 0 0.2 0.1 0.4 0.1 0.5 0.3 0 0.5 0.3 0.7 0.3 0 0.2 0.2 0.3 0.2 0.6 0-0.1 0-0.4 0.1-0.4 0.2 0.6-0.2 0.1 0 0.8 0-0.4 0.1-0.6 0.2-0.8 -0.1-0.6-0.3-0.1-0.3 0.2 -0.1-0.8 0-1.7 0.2-2.2 0.2-0.2 0.2 0.5 0.2 0.4 0.4 0.1 0.2-1.5 0.6-0.9 0.2 0.5 0.1 1.1 0.1 1.5 -0.2 0.2-0.3-0.3-0.4-0.3l0.2 0.2c0 0.2-0.1 0.3-0.2 0.2 0.1 0.5 0.7 0 1 0.5 0-0.2 0.1-0.4 0.1-0.6l-0.1 0.1c-0.1-0.4 0.2-0.6 0-0.8 0.1-0.3 0.3-0.8 0.5-0.6l0 0.6c0-0.2-0.1-0.4-0.2-0.2 0.1-0.3 0.3 0.8 0.4 0l-0.1-0.4c0.1-0.3 0.3-1 0.5-0.8 -0.1-0.6 0 0.1-0.2-0.6 0.1 0.9-0.5 0-0.3 0.9 -0.1-0.8-0.2-0.3-0.4-1 0 0.2 0.1 0.4-0.1 0.3 0 0.1 0 0.1 0 0.2l0 0 0 0c0 0 0 0 0 0 0 0.1 0.1 0.2 0.1 0.3 -0.1 0.5-0.3 0.5-0.4 0.7 -0.1-0.1 0-0.2 0-0.4l-0.1 0.4c0-0.4-0.3-0.7-0.1-1l-0.2 0c-0.1-0.2-0.3-0.3-0.4-0.1 -0.1-0.1-0.2 0.5-0.1 0.2l-0.3 0.3 0-0.1c-0.3 0-0.5 0.8-1 0 -0.1 0.1-0.2 0.3-0.3 0.2l-0.1-0.4c-0.1 0.2-0.5-0.3-0.4 0.1 -0.3-1-0.7-0.1-0.9-0.2l0.1 0.5c-0.2 0-0.3 0.2-0.4 0.4l0.1 0.4c-0.1 0.4-0.5-0.2-0.7-0.1 0-0.2 0-0.1 0.1-0.1 -0.6-0.9-0.4 0.9-0.9 0.3 0 0.2-0.1 0.1-0.2 0.1 0 0 0 0 0 0 0 0 0 0 0 0 -0.1-0.1-0.1-0.1-0.2-0.2 0.1 0.1 0.1 0.2 0.2 0.2 0 0-0.1 0.1-0.1 0.2l-0.2-0.4c0 0 0 0 0 0 -0.1-0.1 0 0.2 0.2 0.6 0 0.1 0 0.2 0 0.3 -0.3-0.7-0.1 0.3-0.5-0.4 0.1 0.4-0.3 0.4 0 1.2 0-0.1-0.1-0.1 0-0.2 -0.1-0.1-0.2-0.1-0.2 0.1l-0.3-0.6 0.1 0.8c-0.2-0.3-0.4-0.5-0.5-1 0 0.8-0.1 0.3 0 1.1l-0.1-0.4c-0.1 0 0 0.6-0.2 0.3 -0.5-0.6-0.9 0.3-1.6-0.1 0.6 1-0.5-0.4 0 0.4 -0.2-0.2-0.3-0.3-0.3-0.6 -0.1 0.4-0.6-0.2-0.3 0.6 -0.2-0.2-0.2-0.4-0.3-0.5 0 0.1 0.1 0.2-0.1 0.1 -0.1-0.1-0.1-0.2-0.1-0.3 -0.2 0.2 0.2 0.9 0.6 1.6 -0.3-0.3-0.3-0.2-0.1 0.3 -0.2-0.2-0.4-0.4-0.3-0.6 -0.1 0-0.7 0-0.3 0.5 -0.1-0.1-0.1 0-0.1 0.1 -0.2 0.1-0.2 0-0.3 0.2l0.1 0.1c0.4 0.7 0 0.2-0.1 0.4l0-0.1c-0.6-0.2 0 0.3-0.6 0l0.3 0.4c0.6 0.8-0.6-0.3-0.5 0.1l0.2 0.2c0.1 0.3-1.1-0.9-1.3-0.9 -0.1-0.1-0.1-0.1-0.1-0.2 -0.6-0.3 0.4 0.5 0.3 0.8 -0.2-0.2-0.5-0.7-0.7-0.7 -0.2-0.2 0.4 1.1-0.2 0.8 0.2 0.2 0.4 0.3 0.5 0.6 -0.1 0.2-1-0.5-0.5 0.3 -0.1 0-0.1-0.1-0.2-0.1 0.1 0.2-0.1 0.5 0.2 0.9 -1.2-1.1 0 1.1-1 0l-0.2 0.3 -0.1-0.1c-0.2 0.1 0 0.4 0.2 0.7 -0.1 0-0.2-0.2-0.2-0.2 -0.5 0-0.4 0.1-0.1 0.8l-0.4-0.3c0.2 0.2-0.9-0.2-0.7 0.5 0 0-0.1-0.1-0.1-0.2 0.2 0.7-1.7-0.2-0.3 1.1l0.2 0.5c0.3-0.2 0.6 0.5 0.9 0.6 0 0.2-0.6-0.1-0.6-0.3l0.1 0c-0.7-0.6-0.5 0.1-1-0.3 -0.3 0.5-1.1 0.7-1.5 1.2l0.6 0.4 -0.1 0.1c-0.2 0-0.5-0.3-0.4-0.4 -0.4-0.2 0.2 0.4 0.3 0.5 -0.4 0.1-0.7-0.6-0.7-0.5l0 0.1 0.1 0c0.2 0.2 0.5 0.4 0.3 0.5 -0.2 0-0.4-0.2-0.5-0.2 0 0-0.1 0-0.1 0l-0.2 0.2 0.5 0.2c0.2 0.2-0.1 0.2 0.5 0.4 -0.9-0.4-0.8 0.6-1.1 0.6 0.3 0.3 0.2 0.5 0.1 0.6 0.1 0 0.7 0.3 0.6 0.4 -1.1-0.7-0.7 0-1.6-0.4 0.6 0.2-0.1 0.5 0.8 0.8 -0.2 0.1-0.4-0.2-0.8-0.3 0.3 0.5-0.6 0.5-0.7 1 0.2 0.1 0.4 0.1 0.6 0.3l-0.9-0.2c0 0.1 0.9 0.5 0.3 0.4 0.1 0 0.4 0.1 0.4 0.2 -1.1 0.4 0 1.7-1.8 1.9 0.4 0 0.4 0.1 0.3 0.2 0.1 0 0.4 0.2 0.6 0.2l-0.7 0.1c0.6 0.3-0.1 0.4 0.5 0.6l-0.1-0.1c0.7 0.4 1.6 0.3 2.5 0.7 -0.8-0.4 1.3 0.1 0.3-0.6 0.2 0 0.3 0.2 0.5 0.2 -0.4-0.2-0.4-0.3-0.2-0.4l0.1 0.1c0-0.4 0.5-0.4 0.9-0.7l-0.4-0.2c0.1-0.1 0.2 0 0.4 0 -0.6-0.4-0.1 0.2-0.8-0.2 0.9 0.3 0.3-0.6 1.3-0.2 0.1-0.1-0.5-0.2-0.5-0.3l0.3 0.1 -0.3-0.2c0.1-0.1 0.5 0.1 0.7 0.2 0 0 0 0.1 0 0.1 0.4 0 0-0.4 0.2-0.3l-0.2 0c-0.1-0.5 0.5-0.7 0.1-1.3l-0.2-0.1c-0.2-0.4 0.3-0.1 0.3-0.5l0 0c-0.2-0.2-0.2-0.3-0.2-0.4 0.2 0.2 0.5 0.1 0.7 0.4 -0.2-0.5-0.2-0.3-0.8-0.9l0.3 0.1c-0.3-0.2-0.4-0.3-0.4-0.5 0.2 0.3 0.5 0.2 0.8 0.5 0.9 0.1-0.4-0.8 0.6-0.4 -0.8-0.7-0.6-0.1-0.8-0.2 -0.3-0.1-0.6-0.5-0.4-0.5 0.1-0.1 1.2 0.5 1.3 0.3 0 0 0 0.1 0 0.1 0.3 0.1-0.2-0.4 0.2-0.2 -0.5-0.4 0.1-0.1-0.5-0.6l0 0.3c-0.1-0.2-0.8-0.8-0.3-0.8 0.1 0.1 0.3 0.3 0.3 0.4 0.2 0.1-0.1-0.2 0.2-0.1 0.6 0.5 0 0.3 0.4 0.8 0.3 0.1-0.3-0.5 0.3 0 -0.9-0.7 0.2-0.1-0.3-0.7l0.4 0.3c0-0.1-0.2-0.2-0.2-0.3l0.5 0.4c-0.4-0.4 0.5 0 0.4-0.2 -0.1 0.2-0.5-0.3-0.9-0.4 -0.3-0.7 1.1 0.5 1.2 0.1 0 0.1-0.3 0-0.5-0.2 0.1 0 0.3 0 0.6 0.1 0.1-0.3-0.4-0.3-0.6-0.5 0.5 0.3-0.1-0.2-0.2-0.4l0.4 0.3c0.4 0-0.8-0.7-0.3-0.7l0.5 0.5 -0.1-0.2 0.4 0.4c-0.2-0.4-0.1-0.3 0.1-0.4 -0.3-0.2-0.7-0.6-0.6-0.7 0.3 0.1 0.3 0.3 0.4 0.1 0.2 0.2 0.5 0.5 0.1 0.3 0.1 0.1 0.2 0.2 0.3 0.3 0.3 0.1 0.2-0.1 0.2-0.2 0 0-0.1 0-0.1 0l-0.3-0.6c0.2 0.1 0.3 0.2 0.3 0.3 0-0.1-0.2-0.2-0.1-0.3 0.3 0.3 0.6 0.5 0.7 0.7l-0.2-0.5c0.1 0.1 0.4 0.2 0.5 0.3 0.3 0-0.4-0.8 0-0.7 -0.1-0.1-0.1-0.1-0.1-0.2 0.2-0.1 0.6 0.1 0.4-0.4l0.6 0.4c0-0.2-0.7-0.5-0.8-0.9 0-0.3 0.5 0.4 0.7 0.5 -0.2-0.3-0.6-0.9-0.1-0.7C397.6 19.1 397.5 19.1 397.5 19.1zM398.7 17.6c0 0.1 0.2 0.4 0 0.2C398.4 17.3 398.6 17.5 398.7 17.6zM400.5 14.8c0.1 0.2 0 0.1-0.2 0C400.4 14.8 400.4 14.8 400.5 14.8zM408.6 8.9c0 0 0 0 0 0C408.5 8.7 408.5 8.8 408.6 8.9zM408.8 9.1c0-0.1 0-0.1 0-0.2 0 0.1-0.1 0.1-0.1 0.1C408.8 9.1 408.8 9.2 408.8 9.1zM390.3 21.1l0.1 0C390.5 21.3 390.4 21.2 390.3 21.1z"/><path d="M400.6 15.6c-0.1-0.1-0.1-0.1-0.2-0.2C400.5 15.5 400.5 15.5 400.6 15.6z"/><polygon points="396.8 20.2 396.8 20.2 396.9 20.2 "/><path d="M406.4 13.5c-0.1-0.1-0.1-0.1-0.1-0.2C406.3 13.4 406.3 13.5 406.4 13.5z"/><path d="M410 8.2l-0.1 0.1c0.1 0 0.1 0.1 0.1 0.2C410 8.4 409.9 8.3 410 8.2z"/><path d="M411.1 11.3c0-0.1 0 0 0.1-0.1l0-0.2C411.1 11 411 11.2 411.1 11.3z"/><path d="M410.1 9.8c0 0.4 0.1 0.3 0.2 0.2 0 0 0 0 0 0C410.3 9.5 410.2 9.7 410.1 9.8z"/><path d="M410.3 10c0 0 0.1 0 0.1 0C410.4 9.8 410.4 10 410.3 10z"/><path d="M409.1 8.8c0.1 0.1 0-0.5 0-0.4C409.2 8 408.9 9.1 409.1 8.8z"/><polygon points="410.2 11.2 410.2 10.7 410.1 11.1 "/><path d="M409.5 10.8l0.1 0.1c0-0.1 0-0.1 0-0.2C409.6 10.8 409.5 10.7 409.5 10.8z"/><path d="M409.7 10.8c0 0 0.1 0 0.1-0.1C409.8 10.7 409.7 10.7 409.7 10.8z"/><polygon points="410 11.3 410 11.2 409.9 11.2 "/><path d="M407.9 10.8l-0.1 0.2c0 0.2 0.1 0.3 0.1 0.2C407.9 11.1 408 11 407.9 10.8z"/><path d="M408.5 12.2c0-0.1-0.1-0.2-0.1-0.4l0 0.6L408.5 12.2z"/><path d="M408.1 12.4c0 0.2-0.2 0.5 0 0.5C408.1 12.6 408.3 12.5 408.1 12.4z"/><polygon points="405.8 11.9 405.8 11.9 405.6 10.9 "/><path d="M404.6 14.8c0.2 0.2-0.2-0.6 0.1-0.4 0-0.2-0.2-0.2-0.2-0.4C404.5 14.3 404.4 14.2 404.6 14.8z"/><path d="M404.5 14c0 0 0-0.1 0-0.2C404.5 13.9 404.5 14 404.5 14z"/><polygon points="386.5 27.8 386.2 27.8 386.6 27.8 "/><path d="M387.1 28.2l-0.6-0.2 0.5 0.3C387 28.3 386.9 28.2 387.1 28.2z"/><path d="M399.8 18.4l-0.1-0.1c-0.1-0.1-0.1-0.1-0.2-0.1L399.8 18.4z"/><polygon points="398.4 18.9 398.4 18.9 398 18.5 "/><path d="M398.1 20.3c0.1 0 0-0.1 0-0.2C398.2 20.2 397.6 19.8 398.1 20.3z"/></svg>
