<svg class="svg svg-average" data-state="svg-average" xmlns="http://www.w3.org/2000/svg" viewBox="0 0 241.5 241.5">
	<path data-state="svg-average" d="M751.8 111.7c3.9 12.6 11.1 22.8 21.6 30.5 10.5 7.7 22.4 11.6 35.7 11.6 13.3 0 25.2-3.9 35.7-11.6 10.5-7.7 17.7-17.9 21.6-30.5 0.8-2.6 0.6-5.1-0.6-7.6 -1.3-2.5-3.2-4.1-6-4.9 -2.6-0.8-5.1-0.6-7.6 0.6s-4.1 3.2-4.9 6c-2.6 8.4-7.4 15.1-14.5 20.3 -7 5.2-15 7.8-23.7 7.8s-16.7-2.6-23.7-7.8c-7-5.2-11.9-11.9-14.5-20.3 -0.8-2.7-2.5-4.7-5-6 -2.5-1.3-5.1-1.5-7.7-0.6 -2.6 0.8-4.5 2.5-5.8 4.9C751.2 106.6 751 109.1 751.8 111.7zM829.1 43.6c0 5.5 2 10.3 5.9 14.2 3.9 3.9 8.6 5.9 14.2 5.9s10.3-2 14.2-5.9 5.9-8.6 5.9-14.2 -2-10.3-5.9-14.2 -8.6-5.9-14.2-5.9 -10.3 2-14.2 5.9C831.1 33.4 829.1 38.1 829.1 43.6zM749 43.6c0 5.5 2 10.3 5.9 14.2s8.6 5.9 14.2 5.9 10.3-2 14.2-5.9 5.9-8.6 5.9-14.2 -2-10.3-5.9-14.2 -8.6-5.9-14.2-5.9 -10.3 2-14.2 5.9S749 38.1 749 43.6zM708.9 83.7c0-13.6 2.7-26.5 8-38.9 5.3-12.4 12.4-23 21.4-31.9 8.9-8.9 19.6-16.1 31.9-21.4 12.4-5.3 25.3-8 38.9-8 13.6 0 26.5 2.7 38.9 8 12.4 5.3 23 12.4 31.9 21.4 8.9 8.9 16.1 19.6 21.4 31.9s8 25.3 8 38.9 -2.7 26.5-8 38.9 -12.4 23-21.4 31.9c-8.9 8.9-19.6 16.1-31.9 21.4 -12.4 5.3-25.3 8-38.9 8 -13.6 0-26.5-2.7-38.9-8 -12.4-5.3-23-12.4-31.9-21.4 -8.9-8.9-16.1-19.6-21.4-31.9C711.5 110.2 708.9 97.3 708.9 83.7zM688.8 83.7c0 21.8 5.4 41.9 16.1 60.4 10.8 18.4 25.3 33 43.8 43.8 18.4 10.8 38.5 16.1 60.4 16.1s41.9-5.4 60.4-16.1 33-25.3 43.8-43.8c10.8-18.4 16.1-38.5 16.1-60.4s-5.4-41.9-16.1-60.4c-10.8-18.4-25.3-33-43.8-43.8s-38.5-16.1-60.4-16.1 -41.9 5.4-60.4 16.1c-18.4 10.8-33 25.3-43.8 43.8C694.2 41.8 688.8 61.9 688.8 83.7z"/>
	<path data-state="svg-average" d="M933.1 441.8c-0.8 2.6-0.6 5.1 0.6 7.6s3.2 4.1 5.8 4.9c2.6 0.8 5.2 0.6 7.7-0.6 2.5-1.3 4.2-3.2 5-6 2.6-8.4 7.4-15.1 14.5-20.3 7-5.2 15-7.8 23.7-7.8s16.7 2.6 23.7 7.8 11.9 11.9 14.5 20.3c0.8 2.7 2.5 4.7 4.9 6 2.5 1.3 5 1.5 7.6 0.6 2.7-0.8 4.7-2.5 6-4.9s1.5-5 0.6-7.6c-3.9-12.6-11.1-22.8-21.6-30.5 -10.5-7.7-22.4-11.6-35.7-11.6s-25.2 3.9-35.7 11.6S937 429.2 933.1 441.8zM1010.5 349.6c0 5.5 2 10.3 5.9 14.2s8.6 5.9 14.2 5.9c5.5 0 10.3-2 14.2-5.9s5.9-8.6 5.9-14.2c0-5.5-2-10.3-5.9-14.2s-8.6-5.9-14.2-5.9c-5.5 0-10.3 2-14.2 5.9S1010.5 344 1010.5 349.6zM930.3 349.6c0 5.5 2 10.3 5.9 14.2s8.6 5.9 14.2 5.9 10.3-2 14.2-5.9 5.9-8.6 5.9-14.2c0-5.5-2-10.3-5.9-14.2s-8.6-5.9-14.2-5.9 -10.3 2-14.2 5.9S930.3 344 930.3 349.6zM890.2 389.6c0-13.6 2.7-26.5 8-38.9 5.3-12.4 12.4-23 21.4-31.9 8.9-8.9 19.6-16.1 31.9-21.4s25.3-8 38.9-8 26.5 2.7 38.9 8c12.4 5.3 23 12.4 31.9 21.4 8.9 8.9 16.1 19.6 21.4 31.9 5.3 12.4 8 25.3 8 38.9 0 13.6-2.7 26.5-8 38.9 -5.3 12.4-12.4 23-21.4 31.9 -8.9 8.9-19.6 16.1-31.9 21.4 -12.4 5.3-25.3 8-38.9 8s-26.5-2.7-38.9-8 -23-12.4-31.9-21.4c-8.9-8.9-16.1-19.6-21.4-31.9C892.9 416.2 890.2 403.2 890.2 389.6zM870.2 389.6c0 21.8 5.4 41.9 16.1 60.4 10.8 18.4 25.3 33 43.8 43.8 18.4 10.8 38.5 16.1 60.4 16.1s41.9-5.4 60.4-16.1 33-25.3 43.8-43.8c10.8-18.4 16.1-38.5 16.1-60.4 0-21.8-5.4-41.9-16.1-60.4 -10.8-18.4-25.3-33-43.8-43.8 -18.4-10.8-38.5-16.1-60.4-16.1s-41.9 5.4-60.4 16.1c-18.4 10.8-33 25.3-43.8 43.8C875.5 347.7 870.2 367.8 870.2 389.6z"/>
	<path data-state="svg-average" d="M60.6 150.8c0 2.7 1 5.1 3 7s4.3 3 7 3H170.9c2.7 0 5.1-1 7-3 2-2 3-4.3 3-7s-1-5.1-3-7c-2-2-4.3-3-7-3H70.6c-2.7 0-5.1 1-7 3S60.6 148.1 60.6 150.8zM140.8 80.7c0 5.5 2 10.3 5.9 14.2 3.9 3.9 8.6 5.9 14.2 5.9s10.3-2 14.2-5.9c3.9-3.9 5.9-8.6 5.9-14.2 0-5.5-2-10.3-5.9-14.2 -3.9-3.9-8.6-5.9-14.2-5.9s-10.3 2-14.2 5.9C142.8 70.4 140.8 75.1 140.8 80.7zM60.6 80.7c0 5.5 2 10.3 5.9 14.2 3.9 3.9 8.6 5.9 14.2 5.9 5.5 0 10.3-2 14.2-5.9 3.9-3.9 5.9-8.6 5.9-14.2 0-5.5-2-10.3-5.9-14.2 -3.9-3.9-8.6-5.9-14.2-5.9 -5.5 0-10.3 2-14.2 5.9S60.6 75.1 60.6 80.7zM20.5 120.8c0-13.6 2.7-26.5 8-38.9S41 58.8 49.9 49.9 69.5 33.9 81.8 28.5s25.3-8 38.9-8 26.5 2.7 38.9 8c12.4 5.3 23 12.4 31.9 21.4 8.9 8.9 16.1 19.6 21.4 31.9s8 25.3 8 38.9 -2.7 26.5-8 38.9 -12.4 23-21.4 31.9c-8.9 8.9-19.6 16.1-31.9 21.4 -12.4 5.3-25.3 8-38.9 8s-26.5-2.7-38.9-8c-12.4-5.3-23-12.4-31.9-21.4s-16.1-19.6-21.4-31.9S20.5 134.3 20.5 120.8zM0.5 120.8c0 21.8 5.4 41.9 16.1 60.4s25.3 33 43.8 43.8 38.5 16.1 60.4 16.1 41.9-5.4 60.4-16.1 33-25.3 43.8-43.8 16.1-38.5 16.1-60.4 -5.4-41.9-16.1-60.4 -25.3-33-43.8-43.8S142.6 0.5 120.8 0.5s-41.9 5.4-60.4 16.1 -33 25.3-43.8 43.8S0.5 98.9 0.5 120.8z"/>
</svg>
